<?xml version="1.0" encoding="utf-8" standalone="no"?>
<!DOCTYPE svg PUBLIC "-//W3C//DTD SVG 1.1//EN"
  "http://www.w3.org/Graphics/SVG/1.1/DTD/svg11.dtd">
<svg xmlns:xlink="http://www.w3.org/1999/xlink" width="726.799688pt" height="510.736234pt" viewBox="0 0 726.799688 510.736234" xmlns="http://www.w3.org/2000/svg" version="1.1">
 <metadata>
  <rdf:RDF xmlns:dc="http://purl.org/dc/elements/1.1/" xmlns:cc="http://creativecommons.org/ns#" xmlns:rdf="http://www.w3.org/1999/02/22-rdf-syntax-ns#">
   <cc:Work>
    <dc:type rdf:resource="http://purl.org/dc/dcmitype/StillImage"/>
    <dc:date>2024-08-21T17:51:25.301465</dc:date>
    <dc:format>image/svg+xml</dc:format>
    <dc:creator>
     <cc:Agent>
      <dc:title>Matplotlib v3.7.2, https://matplotlib.org/</dc:title>
     </cc:Agent>
    </dc:creator>
   </cc:Work>
  </rdf:RDF>
 </metadata>
 <defs>
  <style type="text/css">*{stroke-linejoin: round; stroke-linecap: butt}</style>
 </defs>
 <g id="figure_1">
  <g id="patch_1">
   <path d="M -0 510.736234 
L 726.799688 510.736234 
L 726.799688 0 
L -0 0 
z
" style="fill: #ffffff"/>
  </g>
  <g id="axes_1">
   <g id="patch_2">
    <path d="M 49.999688 466.209375 
L 719.599688 466.209375 
L 719.599688 22.689375 
L 49.999688 22.689375 
z
" style="fill: #ffffff"/>
   </g>
   <g id="patch_3">
    <path d="M 63.391688 466.209375 
L 170.527688 466.209375 
L 170.527688 43.809375 
L 63.391688 43.809375 
z
" clip-path="url(#p78b446f8d8)" style="fill: #abc9ea; stroke: #000000; stroke-linejoin: miter"/>
   </g>
   <g id="patch_4">
    <path d="M 197.311688 466.209375 
L 304.447688 466.209375 
L 304.447688 43.809375 
L 197.311688 43.809375 
z
" clip-path="url(#p78b446f8d8)" style="fill: #efb792; stroke: #000000; stroke-linejoin: miter"/>
   </g>
   <g id="patch_5">
    <path d="M 331.231688 466.209375 
L 438.367688 466.209375 
L 438.367688 43.809375 
L 331.231688 43.809375 
z
" clip-path="url(#p78b446f8d8)" style="fill: #98daa7; stroke: #000000; stroke-linejoin: miter"/>
   </g>
   <g id="patch_6">
    <path d="M 465.151688 466.209375 
L 572.287688 466.209375 
L 572.287688 43.809375 
L 465.151688 43.809375 
z
" clip-path="url(#p78b446f8d8)" style="fill: #f2aba8; stroke: #000000; stroke-linejoin: miter"/>
   </g>
   <g id="patch_7">
    <path d="M 599.071688 466.209375 
L 706.207688 466.209375 
L 706.207688 43.809375 
L 599.071688 43.809375 
z
" clip-path="url(#p78b446f8d8)" style="fill: #d3c4f6; stroke: #000000; stroke-linejoin: miter"/>
   </g>
   <g id="matplotlib.axis_1">
    <g id="xtick_1">
     <g id="line2d_1">
      <path d="M 116.959688 466.209375 
L 116.959688 22.689375 
" clip-path="url(#p78b446f8d8)" style="fill: none; stroke-dasharray: 1.85,0.8; stroke-dashoffset: 0; stroke: #b0b0b0; stroke-width: 0.5"/>
     </g>
     <g id="line2d_2">
      <defs>
       <path id="m24a15301f4" d="M 0 0 
L 0 3.5 
" style="stroke: #000000; stroke-width: 0.8"/>
      </defs>
      <g>
       <use xlink:href="#m24a15301f4" x="116.959688" y="466.209375" style="stroke: #000000; stroke-width: 0.8"/>
      </g>
     </g>
     <g id="text_1">
      <!-- 0 -->
      <g transform="translate(116.601715 485.055623) rotate(-45) scale(0.12 -0.12)">
       <defs>
        <path id="DejaVuSans-30" d="M 2034 4250 
Q 1547 4250 1301 3770 
Q 1056 3291 1056 2328 
Q 1056 1369 1301 889 
Q 1547 409 2034 409 
Q 2525 409 2770 889 
Q 3016 1369 3016 2328 
Q 3016 3291 2770 3770 
Q 2525 4250 2034 4250 
z
M 2034 4750 
Q 2819 4750 3233 4129 
Q 3647 3509 3647 2328 
Q 3647 1150 3233 529 
Q 2819 -91 2034 -91 
Q 1250 -91 836 529 
Q 422 1150 422 2328 
Q 422 3509 836 4129 
Q 1250 4750 2034 4750 
z
" transform="scale(0.015625)"/>
       </defs>
       <use xlink:href="#DejaVuSans-30"/>
      </g>
     </g>
    </g>
    <g id="xtick_2">
     <g id="line2d_3">
      <path d="M 250.879688 466.209375 
L 250.879688 22.689375 
" clip-path="url(#p78b446f8d8)" style="fill: none; stroke-dasharray: 1.85,0.8; stroke-dashoffset: 0; stroke: #b0b0b0; stroke-width: 0.5"/>
     </g>
     <g id="line2d_4">
      <g>
       <use xlink:href="#m24a15301f4" x="250.879688" y="466.209375" style="stroke: #000000; stroke-width: 0.8"/>
      </g>
     </g>
     <g id="text_2">
      <!-- 1 -->
      <g transform="translate(250.521715 485.055623) rotate(-45) scale(0.12 -0.12)">
       <defs>
        <path id="DejaVuSans-31" d="M 794 531 
L 1825 531 
L 1825 4091 
L 703 3866 
L 703 4441 
L 1819 4666 
L 2450 4666 
L 2450 531 
L 3481 531 
L 3481 0 
L 794 0 
L 794 531 
z
" transform="scale(0.015625)"/>
       </defs>
       <use xlink:href="#DejaVuSans-31"/>
      </g>
     </g>
    </g>
    <g id="xtick_3">
     <g id="line2d_5">
      <path d="M 384.799688 466.209375 
L 384.799688 22.689375 
" clip-path="url(#p78b446f8d8)" style="fill: none; stroke-dasharray: 1.85,0.8; stroke-dashoffset: 0; stroke: #b0b0b0; stroke-width: 0.5"/>
     </g>
     <g id="line2d_6">
      <g>
       <use xlink:href="#m24a15301f4" x="384.799688" y="466.209375" style="stroke: #000000; stroke-width: 0.8"/>
      </g>
     </g>
     <g id="text_3">
      <!-- 2 -->
      <g transform="translate(384.441715 485.055623) rotate(-45) scale(0.12 -0.12)">
       <defs>
        <path id="DejaVuSans-32" d="M 1228 531 
L 3431 531 
L 3431 0 
L 469 0 
L 469 531 
Q 828 903 1448 1529 
Q 2069 2156 2228 2338 
Q 2531 2678 2651 2914 
Q 2772 3150 2772 3378 
Q 2772 3750 2511 3984 
Q 2250 4219 1831 4219 
Q 1534 4219 1204 4116 
Q 875 4013 500 3803 
L 500 4441 
Q 881 4594 1212 4672 
Q 1544 4750 1819 4750 
Q 2544 4750 2975 4387 
Q 3406 4025 3406 3419 
Q 3406 3131 3298 2873 
Q 3191 2616 2906 2266 
Q 2828 2175 2409 1742 
Q 1991 1309 1228 531 
z
" transform="scale(0.015625)"/>
       </defs>
       <use xlink:href="#DejaVuSans-32"/>
      </g>
     </g>
    </g>
    <g id="xtick_4">
     <g id="line2d_7">
      <path d="M 518.719688 466.209375 
L 518.719688 22.689375 
" clip-path="url(#p78b446f8d8)" style="fill: none; stroke-dasharray: 1.85,0.8; stroke-dashoffset: 0; stroke: #b0b0b0; stroke-width: 0.5"/>
     </g>
     <g id="line2d_8">
      <g>
       <use xlink:href="#m24a15301f4" x="518.719688" y="466.209375" style="stroke: #000000; stroke-width: 0.8"/>
      </g>
     </g>
     <g id="text_4">
      <!-- 3 -->
      <g transform="translate(518.361715 485.055623) rotate(-45) scale(0.12 -0.12)">
       <defs>
        <path id="DejaVuSans-33" d="M 2597 2516 
Q 3050 2419 3304 2112 
Q 3559 1806 3559 1356 
Q 3559 666 3084 287 
Q 2609 -91 1734 -91 
Q 1441 -91 1130 -33 
Q 819 25 488 141 
L 488 750 
Q 750 597 1062 519 
Q 1375 441 1716 441 
Q 2309 441 2620 675 
Q 2931 909 2931 1356 
Q 2931 1769 2642 2001 
Q 2353 2234 1838 2234 
L 1294 2234 
L 1294 2753 
L 1863 2753 
Q 2328 2753 2575 2939 
Q 2822 3125 2822 3475 
Q 2822 3834 2567 4026 
Q 2313 4219 1838 4219 
Q 1578 4219 1281 4162 
Q 984 4106 628 3988 
L 628 4550 
Q 988 4650 1302 4700 
Q 1616 4750 1894 4750 
Q 2613 4750 3031 4423 
Q 3450 4097 3450 3541 
Q 3450 3153 3228 2886 
Q 3006 2619 2597 2516 
z
" transform="scale(0.015625)"/>
       </defs>
       <use xlink:href="#DejaVuSans-33"/>
      </g>
     </g>
    </g>
    <g id="xtick_5">
     <g id="line2d_9">
      <path d="M 652.639688 466.209375 
L 652.639688 22.689375 
" clip-path="url(#p78b446f8d8)" style="fill: none; stroke-dasharray: 1.85,0.8; stroke-dashoffset: 0; stroke: #b0b0b0; stroke-width: 0.5"/>
     </g>
     <g id="line2d_10">
      <g>
       <use xlink:href="#m24a15301f4" x="652.639688" y="466.209375" style="stroke: #000000; stroke-width: 0.8"/>
      </g>
     </g>
     <g id="text_5">
      <!-- 4 -->
      <g transform="translate(652.281715 485.055623) rotate(-45) scale(0.12 -0.12)">
       <defs>
        <path id="DejaVuSans-34" d="M 2419 4116 
L 825 1625 
L 2419 1625 
L 2419 4116 
z
M 2253 4666 
L 3047 4666 
L 3047 1625 
L 3713 1625 
L 3713 1100 
L 3047 1100 
L 3047 0 
L 2419 0 
L 2419 1100 
L 313 1100 
L 313 1709 
L 2253 4666 
z
" transform="scale(0.015625)"/>
       </defs>
       <use xlink:href="#DejaVuSans-34"/>
      </g>
     </g>
    </g>
    <g id="text_6">
     <!-- Genotype -->
     <g transform="translate(357.585 500.515297) scale(0.14 -0.14)">
      <defs>
       <path id="TimesNewRomanPSMT-47" d="M 3928 4334 
L 4038 2997 
L 3928 2997 
Q 3763 3497 3500 3750 
Q 3122 4116 2528 4116 
Q 1719 4116 1297 3475 
Q 944 2934 944 2188 
Q 944 1581 1178 1081 
Q 1413 581 1792 348 
Q 2172 116 2572 116 
Q 2806 116 3025 175 
Q 3244 234 3447 350 
L 3447 1575 
Q 3447 1894 3398 1992 
Q 3350 2091 3248 2142 
Q 3147 2194 2891 2194 
L 2891 2313 
L 4531 2313 
L 4531 2194 
L 4453 2194 
Q 4209 2194 4119 2031 
Q 4056 1916 4056 1575 
L 4056 278 
Q 3697 84 3347 -6 
Q 2997 -97 2569 -97 
Q 1341 -97 703 691 
Q 225 1281 225 2053 
Q 225 2613 494 3125 
Q 813 3734 1369 4063 
Q 1834 4334 2469 4334 
Q 2700 4334 2889 4296 
Q 3078 4259 3425 4131 
Q 3600 4066 3659 4066 
Q 3719 4066 3761 4120 
Q 3803 4175 3813 4334 
L 3928 4334 
z
" transform="scale(0.015625)"/>
       <path id="TimesNewRomanPSMT-65" d="M 681 1784 
Q 678 1147 991 784 
Q 1303 422 1725 422 
Q 2006 422 2214 576 
Q 2422 731 2563 1106 
L 2659 1044 
Q 2594 616 2278 264 
Q 1963 -88 1488 -88 
Q 972 -88 605 314 
Q 238 716 238 1394 
Q 238 2128 614 2539 
Q 991 2950 1559 2950 
Q 2041 2950 2350 2633 
Q 2659 2316 2659 1784 
L 681 1784 
z
M 681 1966 
L 2006 1966 
Q 1991 2241 1941 2353 
Q 1863 2528 1708 2628 
Q 1553 2728 1384 2728 
Q 1125 2728 920 2526 
Q 716 2325 681 1966 
z
" transform="scale(0.015625)"/>
       <path id="TimesNewRomanPSMT-6e" d="M 1034 2341 
Q 1538 2947 1994 2947 
Q 2228 2947 2397 2830 
Q 2566 2713 2666 2444 
Q 2734 2256 2734 1869 
L 2734 647 
Q 2734 375 2778 278 
Q 2813 200 2889 156 
Q 2966 113 3172 113 
L 3172 0 
L 1756 0 
L 1756 113 
L 1816 113 
Q 2016 113 2095 173 
Q 2175 234 2206 353 
Q 2219 400 2219 647 
L 2219 1819 
Q 2219 2209 2117 2386 
Q 2016 2563 1775 2563 
Q 1403 2563 1034 2156 
L 1034 647 
Q 1034 356 1069 288 
Q 1113 197 1189 155 
Q 1266 113 1500 113 
L 1500 0 
L 84 0 
L 84 113 
L 147 113 
Q 366 113 442 223 
Q 519 334 519 647 
L 519 1709 
Q 519 2225 495 2337 
Q 472 2450 423 2490 
Q 375 2531 294 2531 
Q 206 2531 84 2484 
L 38 2597 
L 900 2947 
L 1034 2947 
L 1034 2341 
z
" transform="scale(0.015625)"/>
       <path id="TimesNewRomanPSMT-6f" d="M 1600 2947 
Q 2250 2947 2644 2453 
Q 2978 2031 2978 1484 
Q 2978 1100 2793 706 
Q 2609 313 2286 112 
Q 1963 -88 1566 -88 
Q 919 -88 538 428 
Q 216 863 216 1403 
Q 216 1797 411 2186 
Q 606 2575 925 2761 
Q 1244 2947 1600 2947 
z
M 1503 2744 
Q 1338 2744 1170 2645 
Q 1003 2547 900 2300 
Q 797 2053 797 1666 
Q 797 1041 1045 587 
Q 1294 134 1700 134 
Q 2003 134 2200 384 
Q 2397 634 2397 1244 
Q 2397 2006 2069 2444 
Q 1847 2744 1503 2744 
z
" transform="scale(0.015625)"/>
       <path id="TimesNewRomanPSMT-74" d="M 1031 3803 
L 1031 2863 
L 1700 2863 
L 1700 2644 
L 1031 2644 
L 1031 788 
Q 1031 509 1111 412 
Q 1191 316 1316 316 
Q 1419 316 1516 380 
Q 1613 444 1666 569 
L 1788 569 
Q 1678 263 1478 108 
Q 1278 -47 1066 -47 
Q 922 -47 784 33 
Q 647 113 581 261 
Q 516 409 516 719 
L 516 2644 
L 63 2644 
L 63 2747 
Q 234 2816 414 2980 
Q 594 3144 734 3369 
Q 806 3488 934 3803 
L 1031 3803 
z
" transform="scale(0.015625)"/>
       <path id="TimesNewRomanPSMT-79" d="M 38 2863 
L 1372 2863 
L 1372 2747 
L 1306 2747 
Q 1166 2747 1095 2686 
Q 1025 2625 1025 2534 
Q 1025 2413 1128 2197 
L 1825 753 
L 2466 2334 
Q 2519 2463 2519 2588 
Q 2519 2644 2497 2672 
Q 2472 2706 2419 2726 
Q 2366 2747 2231 2747 
L 2231 2863 
L 3163 2863 
L 3163 2747 
Q 3047 2734 2984 2696 
Q 2922 2659 2847 2556 
Q 2819 2513 2741 2316 
L 1575 -541 
Q 1406 -956 1132 -1168 
Q 859 -1381 606 -1381 
Q 422 -1381 303 -1275 
Q 184 -1169 184 -1031 
Q 184 -900 270 -820 
Q 356 -741 506 -741 
Q 609 -741 788 -809 
Q 913 -856 944 -856 
Q 1038 -856 1148 -759 
Q 1259 -663 1372 -384 
L 1575 113 
L 547 2272 
Q 500 2369 397 2513 
Q 319 2622 269 2659 
Q 197 2709 38 2747 
L 38 2863 
z
" transform="scale(0.015625)"/>
       <path id="TimesNewRomanPSMT-70" d="M -6 2578 
L 875 2934 
L 994 2934 
L 994 2266 
Q 1216 2644 1439 2795 
Q 1663 2947 1909 2947 
Q 2341 2947 2628 2609 
Q 2981 2197 2981 1534 
Q 2981 794 2556 309 
Q 2206 -88 1675 -88 
Q 1444 -88 1275 -22 
Q 1150 25 994 166 
L 994 -706 
Q 994 -1000 1030 -1079 
Q 1066 -1159 1155 -1206 
Q 1244 -1253 1478 -1253 
L 1478 -1369 
L -22 -1369 
L -22 -1253 
L 56 -1253 
Q 228 -1256 350 -1188 
Q 409 -1153 442 -1076 
Q 475 -1000 475 -688 
L 475 2019 
Q 475 2297 450 2372 
Q 425 2447 370 2484 
Q 316 2522 222 2522 
Q 147 2522 31 2478 
L -6 2578 
z
M 994 2081 
L 994 1013 
Q 994 666 1022 556 
Q 1066 375 1236 237 
Q 1406 100 1666 100 
Q 1978 100 2172 344 
Q 2425 663 2425 1241 
Q 2425 1897 2138 2250 
Q 1938 2494 1663 2494 
Q 1513 2494 1366 2419 
Q 1253 2363 994 2081 
z
" transform="scale(0.015625)"/>
      </defs>
      <use xlink:href="#TimesNewRomanPSMT-47"/>
      <use xlink:href="#TimesNewRomanPSMT-65" x="72.216797"/>
      <use xlink:href="#TimesNewRomanPSMT-6e" x="116.601562"/>
      <use xlink:href="#TimesNewRomanPSMT-6f" x="166.601562"/>
      <use xlink:href="#TimesNewRomanPSMT-74" x="216.601562"/>
      <use xlink:href="#TimesNewRomanPSMT-79" x="244.384766"/>
      <use xlink:href="#TimesNewRomanPSMT-70" x="294.384766"/>
      <use xlink:href="#TimesNewRomanPSMT-65" x="344.384766"/>
     </g>
    </g>
   </g>
   <g id="matplotlib.axis_2">
    <g id="ytick_1">
     <g id="line2d_11">
      <path d="M 49.999688 466.209375 
L 719.599688 466.209375 
" clip-path="url(#p78b446f8d8)" style="fill: none; stroke-dasharray: 1.85,0.8; stroke-dashoffset: 0; stroke: #b0b0b0; stroke-width: 0.5"/>
     </g>
     <g id="line2d_12">
      <defs>
       <path id="m62feb0c5b1" d="M 0 0 
L -3.5 0 
" style="stroke: #000000; stroke-width: 0.8"/>
      </defs>
      <g>
       <use xlink:href="#m62feb0c5b1" x="49.999688" y="466.209375" style="stroke: #000000; stroke-width: 0.8"/>
      </g>
     </g>
     <g id="text_7">
      <!-- 0.0 -->
      <g transform="translate(23.915938 470.768437) scale(0.12 -0.12)">
       <defs>
        <path id="DejaVuSans-2e" d="M 684 794 
L 1344 794 
L 1344 0 
L 684 0 
L 684 794 
z
" transform="scale(0.015625)"/>
       </defs>
       <use xlink:href="#DejaVuSans-30"/>
       <use xlink:href="#DejaVuSans-2e" x="63.623047"/>
       <use xlink:href="#DejaVuSans-30" x="95.410156"/>
      </g>
     </g>
    </g>
    <g id="ytick_2">
     <g id="line2d_13">
      <path d="M 49.999688 381.729375 
L 719.599688 381.729375 
" clip-path="url(#p78b446f8d8)" style="fill: none; stroke-dasharray: 1.85,0.8; stroke-dashoffset: 0; stroke: #b0b0b0; stroke-width: 0.5"/>
     </g>
     <g id="line2d_14">
      <g>
       <use xlink:href="#m62feb0c5b1" x="49.999688" y="381.729375" style="stroke: #000000; stroke-width: 0.8"/>
      </g>
     </g>
     <g id="text_8">
      <!-- 0.2 -->
      <g transform="translate(23.915938 386.288437) scale(0.12 -0.12)">
       <use xlink:href="#DejaVuSans-30"/>
       <use xlink:href="#DejaVuSans-2e" x="63.623047"/>
       <use xlink:href="#DejaVuSans-32" x="95.410156"/>
      </g>
     </g>
    </g>
    <g id="ytick_3">
     <g id="line2d_15">
      <path d="M 49.999688 297.249375 
L 719.599688 297.249375 
" clip-path="url(#p78b446f8d8)" style="fill: none; stroke-dasharray: 1.85,0.8; stroke-dashoffset: 0; stroke: #b0b0b0; stroke-width: 0.5"/>
     </g>
     <g id="line2d_16">
      <g>
       <use xlink:href="#m62feb0c5b1" x="49.999688" y="297.249375" style="stroke: #000000; stroke-width: 0.8"/>
      </g>
     </g>
     <g id="text_9">
      <!-- 0.4 -->
      <g transform="translate(23.915938 301.808437) scale(0.12 -0.12)">
       <use xlink:href="#DejaVuSans-30"/>
       <use xlink:href="#DejaVuSans-2e" x="63.623047"/>
       <use xlink:href="#DejaVuSans-34" x="95.410156"/>
      </g>
     </g>
    </g>
    <g id="ytick_4">
     <g id="line2d_17">
      <path d="M 49.999688 212.769375 
L 719.599688 212.769375 
" clip-path="url(#p78b446f8d8)" style="fill: none; stroke-dasharray: 1.85,0.8; stroke-dashoffset: 0; stroke: #b0b0b0; stroke-width: 0.5"/>
     </g>
     <g id="line2d_18">
      <g>
       <use xlink:href="#m62feb0c5b1" x="49.999688" y="212.769375" style="stroke: #000000; stroke-width: 0.8"/>
      </g>
     </g>
     <g id="text_10">
      <!-- 0.6 -->
      <g transform="translate(23.915938 217.328437) scale(0.12 -0.12)">
       <defs>
        <path id="DejaVuSans-36" d="M 2113 2584 
Q 1688 2584 1439 2293 
Q 1191 2003 1191 1497 
Q 1191 994 1439 701 
Q 1688 409 2113 409 
Q 2538 409 2786 701 
Q 3034 994 3034 1497 
Q 3034 2003 2786 2293 
Q 2538 2584 2113 2584 
z
M 3366 4563 
L 3366 3988 
Q 3128 4100 2886 4159 
Q 2644 4219 2406 4219 
Q 1781 4219 1451 3797 
Q 1122 3375 1075 2522 
Q 1259 2794 1537 2939 
Q 1816 3084 2150 3084 
Q 2853 3084 3261 2657 
Q 3669 2231 3669 1497 
Q 3669 778 3244 343 
Q 2819 -91 2113 -91 
Q 1303 -91 875 529 
Q 447 1150 447 2328 
Q 447 3434 972 4092 
Q 1497 4750 2381 4750 
Q 2619 4750 2861 4703 
Q 3103 4656 3366 4563 
z
" transform="scale(0.015625)"/>
       </defs>
       <use xlink:href="#DejaVuSans-30"/>
       <use xlink:href="#DejaVuSans-2e" x="63.623047"/>
       <use xlink:href="#DejaVuSans-36" x="95.410156"/>
      </g>
     </g>
    </g>
    <g id="ytick_5">
     <g id="line2d_19">
      <path d="M 49.999688 128.289375 
L 719.599688 128.289375 
" clip-path="url(#p78b446f8d8)" style="fill: none; stroke-dasharray: 1.85,0.8; stroke-dashoffset: 0; stroke: #b0b0b0; stroke-width: 0.5"/>
     </g>
     <g id="line2d_20">
      <g>
       <use xlink:href="#m62feb0c5b1" x="49.999688" y="128.289375" style="stroke: #000000; stroke-width: 0.8"/>
      </g>
     </g>
     <g id="text_11">
      <!-- 0.8 -->
      <g transform="translate(23.915938 132.848437) scale(0.12 -0.12)">
       <defs>
        <path id="DejaVuSans-38" d="M 2034 2216 
Q 1584 2216 1326 1975 
Q 1069 1734 1069 1313 
Q 1069 891 1326 650 
Q 1584 409 2034 409 
Q 2484 409 2743 651 
Q 3003 894 3003 1313 
Q 3003 1734 2745 1975 
Q 2488 2216 2034 2216 
z
M 1403 2484 
Q 997 2584 770 2862 
Q 544 3141 544 3541 
Q 544 4100 942 4425 
Q 1341 4750 2034 4750 
Q 2731 4750 3128 4425 
Q 3525 4100 3525 3541 
Q 3525 3141 3298 2862 
Q 3072 2584 2669 2484 
Q 3125 2378 3379 2068 
Q 3634 1759 3634 1313 
Q 3634 634 3220 271 
Q 2806 -91 2034 -91 
Q 1263 -91 848 271 
Q 434 634 434 1313 
Q 434 1759 690 2068 
Q 947 2378 1403 2484 
z
M 1172 3481 
Q 1172 3119 1398 2916 
Q 1625 2713 2034 2713 
Q 2441 2713 2670 2916 
Q 2900 3119 2900 3481 
Q 2900 3844 2670 4047 
Q 2441 4250 2034 4250 
Q 1625 4250 1398 4047 
Q 1172 3844 1172 3481 
z
" transform="scale(0.015625)"/>
       </defs>
       <use xlink:href="#DejaVuSans-30"/>
       <use xlink:href="#DejaVuSans-2e" x="63.623047"/>
       <use xlink:href="#DejaVuSans-38" x="95.410156"/>
      </g>
     </g>
    </g>
    <g id="ytick_6">
     <g id="line2d_21">
      <path d="M 49.999688 43.809375 
L 719.599688 43.809375 
" clip-path="url(#p78b446f8d8)" style="fill: none; stroke-dasharray: 1.85,0.8; stroke-dashoffset: 0; stroke: #b0b0b0; stroke-width: 0.5"/>
     </g>
     <g id="line2d_22">
      <g>
       <use xlink:href="#m62feb0c5b1" x="49.999688" y="43.809375" style="stroke: #000000; stroke-width: 0.8"/>
      </g>
     </g>
     <g id="text_12">
      <!-- 1.0 -->
      <g transform="translate(23.915938 48.368437) scale(0.12 -0.12)">
       <use xlink:href="#DejaVuSans-31"/>
       <use xlink:href="#DejaVuSans-2e" x="63.623047"/>
       <use xlink:href="#DejaVuSans-30" x="95.410156"/>
      </g>
     </g>
    </g>
    <g id="text_13">
     <!-- Frequency -->
     <g transform="translate(16.895 273.994844) rotate(-90) scale(0.14 -0.14)">
      <defs>
       <path id="TimesNewRomanPSMT-46" d="M 1309 4006 
L 1309 2341 
L 2081 2341 
Q 2347 2341 2470 2458 
Q 2594 2575 2634 2922 
L 2750 2922 
L 2750 1488 
L 2634 1488 
Q 2631 1734 2570 1850 
Q 2509 1966 2401 2023 
Q 2294 2081 2081 2081 
L 1309 2081 
L 1309 750 
Q 1309 428 1350 325 
Q 1381 247 1481 191 
Q 1619 116 1769 116 
L 1922 116 
L 1922 0 
L 103 0 
L 103 116 
L 253 116 
Q 516 116 634 269 
Q 709 369 709 750 
L 709 3488 
Q 709 3809 669 3913 
Q 638 3991 541 4047 
Q 406 4122 253 4122 
L 103 4122 
L 103 4238 
L 3256 4238 
L 3297 3306 
L 3188 3306 
Q 3106 3603 2998 3742 
Q 2891 3881 2733 3943 
Q 2575 4006 2244 4006 
L 1309 4006 
z
" transform="scale(0.015625)"/>
       <path id="TimesNewRomanPSMT-72" d="M 1038 2947 
L 1038 2303 
Q 1397 2947 1775 2947 
Q 1947 2947 2059 2842 
Q 2172 2738 2172 2600 
Q 2172 2478 2090 2393 
Q 2009 2309 1897 2309 
Q 1788 2309 1652 2417 
Q 1516 2525 1450 2525 
Q 1394 2525 1328 2463 
Q 1188 2334 1038 2041 
L 1038 669 
Q 1038 431 1097 309 
Q 1138 225 1241 169 
Q 1344 113 1538 113 
L 1538 0 
L 72 0 
L 72 113 
Q 291 113 397 181 
Q 475 231 506 341 
Q 522 394 522 644 
L 522 1753 
Q 522 2253 501 2348 
Q 481 2444 426 2487 
Q 372 2531 291 2531 
Q 194 2531 72 2484 
L 41 2597 
L 906 2947 
L 1038 2947 
z
" transform="scale(0.015625)"/>
       <path id="TimesNewRomanPSMT-71" d="M 2734 2947 
L 2734 -734 
Q 2734 -1009 2771 -1087 
Q 2809 -1166 2889 -1209 
Q 2969 -1253 3200 -1253 
L 3200 -1369 
L 1756 -1369 
L 1756 -1253 
L 1816 -1253 
Q 1991 -1253 2081 -1203 
Q 2144 -1169 2181 -1080 
Q 2219 -991 2219 -734 
L 2219 497 
Q 1934 159 1721 35 
Q 1509 -88 1281 -88 
Q 866 -88 539 290 
Q 213 669 213 1303 
Q 213 2031 644 2489 
Q 1075 2947 1684 2947 
Q 1863 2947 2013 2897 
Q 2163 2847 2281 2747 
Q 2463 2834 2628 2947 
L 2734 2947 
z
M 2219 694 
L 2219 2038 
Q 2219 2272 2158 2406 
Q 2097 2541 1940 2634 
Q 1784 2728 1588 2728 
Q 1238 2728 988 2431 
Q 738 2134 738 1531 
Q 738 953 992 653 
Q 1247 353 1606 353 
Q 1791 353 1934 433 
Q 2078 513 2219 694 
z
" transform="scale(0.015625)"/>
       <path id="TimesNewRomanPSMT-75" d="M 2709 2863 
L 2709 1128 
Q 2709 631 2732 520 
Q 2756 409 2807 365 
Q 2859 322 2928 322 
Q 3025 322 3147 375 
L 3191 266 
L 2334 -88 
L 2194 -88 
L 2194 519 
Q 1825 119 1631 15 
Q 1438 -88 1222 -88 
Q 981 -88 804 51 
Q 628 191 559 409 
Q 491 628 491 1028 
L 491 2306 
Q 491 2509 447 2587 
Q 403 2666 317 2708 
Q 231 2750 6 2747 
L 6 2863 
L 1009 2863 
L 1009 947 
Q 1009 547 1148 422 
Q 1288 297 1484 297 
Q 1619 297 1789 381 
Q 1959 466 2194 703 
L 2194 2325 
Q 2194 2569 2105 2655 
Q 2016 2741 1734 2747 
L 1734 2863 
L 2709 2863 
z
" transform="scale(0.015625)"/>
       <path id="TimesNewRomanPSMT-63" d="M 2631 1088 
Q 2516 522 2178 217 
Q 1841 -88 1431 -88 
Q 944 -88 581 321 
Q 219 731 219 1428 
Q 219 2103 620 2525 
Q 1022 2947 1584 2947 
Q 2006 2947 2278 2723 
Q 2550 2500 2550 2259 
Q 2550 2141 2473 2067 
Q 2397 1994 2259 1994 
Q 2075 1994 1981 2113 
Q 1928 2178 1911 2362 
Q 1894 2547 1784 2644 
Q 1675 2738 1481 2738 
Q 1169 2738 978 2506 
Q 725 2200 725 1697 
Q 725 1184 976 792 
Q 1228 400 1656 400 
Q 1963 400 2206 609 
Q 2378 753 2541 1131 
L 2631 1088 
z
" transform="scale(0.015625)"/>
      </defs>
      <use xlink:href="#TimesNewRomanPSMT-46"/>
      <use xlink:href="#TimesNewRomanPSMT-72" x="55.615234"/>
      <use xlink:href="#TimesNewRomanPSMT-65" x="88.916016"/>
      <use xlink:href="#TimesNewRomanPSMT-71" x="133.300781"/>
      <use xlink:href="#TimesNewRomanPSMT-75" x="183.300781"/>
      <use xlink:href="#TimesNewRomanPSMT-65" x="233.300781"/>
      <use xlink:href="#TimesNewRomanPSMT-6e" x="277.685547"/>
      <use xlink:href="#TimesNewRomanPSMT-63" x="327.685547"/>
      <use xlink:href="#TimesNewRomanPSMT-79" x="372.070312"/>
     </g>
    </g>
   </g>
   <g id="line2d_23">
    <path clip-path="url(#p78b446f8d8)" style="fill: none; stroke: #424242; stroke-width: 2.7; stroke-linecap: square"/>
   </g>
   <g id="line2d_24">
    <path clip-path="url(#p78b446f8d8)" style="fill: none; stroke: #424242; stroke-width: 2.7; stroke-linecap: square"/>
   </g>
   <g id="line2d_25">
    <path clip-path="url(#p78b446f8d8)" style="fill: none; stroke: #424242; stroke-width: 2.7; stroke-linecap: square"/>
   </g>
   <g id="line2d_26">
    <path clip-path="url(#p78b446f8d8)" style="fill: none; stroke: #424242; stroke-width: 2.7; stroke-linecap: square"/>
   </g>
   <g id="line2d_27">
    <path clip-path="url(#p78b446f8d8)" style="fill: none; stroke: #424242; stroke-width: 2.7; stroke-linecap: square"/>
   </g>
   <g id="patch_8">
    <path d="M 49.999688 466.209375 
L 49.999688 22.689375 
" style="fill: none; stroke: #000000; stroke-width: 0.8; stroke-linejoin: miter; stroke-linecap: square"/>
   </g>
   <g id="patch_9">
    <path d="M 49.999688 466.209375 
L 719.599688 466.209375 
" style="fill: none; stroke: #000000; stroke-width: 0.8; stroke-linejoin: miter; stroke-linecap: square"/>
   </g>
   <g id="text_14">
    <!-- Genotype Frequency Analysis for Law School Admission Bar Passage -->
    <g transform="translate(177.874219 16.689375) scale(0.14 -0.14)">
     <defs>
      <path id="TimesNewRomanPS-BoldMT-47" d="M 4416 4334 
L 4416 2841 
L 4300 2841 
Q 4091 3453 3672 3772 
Q 3253 4091 2756 4091 
Q 2281 4091 1965 3823 
Q 1650 3556 1519 3078 
Q 1388 2600 1388 2097 
Q 1388 1488 1531 1028 
Q 1675 569 1995 353 
Q 2316 138 2756 138 
Q 2909 138 3070 170 
Q 3231 203 3400 266 
L 3400 1147 
Q 3400 1397 3365 1470 
Q 3331 1544 3223 1603 
Q 3116 1663 2963 1663 
L 2853 1663 
L 2853 1778 
L 4913 1778 
L 4913 1663 
Q 4678 1647 4586 1598 
Q 4494 1550 4444 1438 
Q 4416 1378 4416 1147 
L 4416 266 
Q 4009 84 3570 -8 
Q 3131 -100 2659 -100 
Q 2056 -100 1657 64 
Q 1259 228 954 495 
Q 650 763 478 1097 
Q 259 1528 259 2063 
Q 259 3019 931 3678 
Q 1603 4338 2622 4338 
Q 2938 4338 3191 4288 
Q 3328 4263 3636 4145 
Q 3944 4028 4000 4028 
Q 4088 4028 4163 4092 
Q 4238 4156 4300 4334 
L 4416 4334 
z
" transform="scale(0.015625)"/>
      <path id="TimesNewRomanPS-BoldMT-65" d="M 2691 1566 
L 1088 1566 
Q 1116 984 1397 647 
Q 1613 388 1916 388 
Q 2103 388 2256 492 
Q 2409 597 2584 869 
L 2691 800 
Q 2453 316 2165 114 
Q 1878 -88 1500 -88 
Q 850 -88 516 413 
Q 247 816 247 1413 
Q 247 2144 642 2576 
Q 1038 3009 1569 3009 
Q 2013 3009 2339 2645 
Q 2666 2281 2691 1566 
z
M 1922 1775 
Q 1922 2278 1867 2465 
Q 1813 2653 1697 2750 
Q 1631 2806 1522 2806 
Q 1359 2806 1256 2647 
Q 1072 2369 1072 1884 
L 1072 1775 
L 1922 1775 
z
" transform="scale(0.015625)"/>
      <path id="TimesNewRomanPS-BoldMT-6e" d="M 1409 2922 
L 1409 2544 
Q 1634 2788 1840 2898 
Q 2047 3009 2284 3009 
Q 2569 3009 2756 2851 
Q 2944 2694 3006 2459 
Q 3056 2281 3056 1775 
L 3056 638 
Q 3056 300 3117 217 
Q 3178 134 3372 113 
L 3372 0 
L 1894 0 
L 1894 113 
Q 2059 134 2131 250 
Q 2181 328 2181 638 
L 2181 1938 
Q 2181 2297 2153 2390 
Q 2125 2484 2058 2536 
Q 1991 2588 1909 2588 
Q 1641 2588 1409 2203 
L 1409 638 
Q 1409 309 1470 221 
Q 1531 134 1697 113 
L 1697 0 
L 219 0 
L 219 113 
Q 403 131 481 231 
Q 534 300 534 638 
L 534 2288 
Q 534 2619 473 2700 
Q 413 2781 219 2806 
L 219 2922 
L 1409 2922 
z
" transform="scale(0.015625)"/>
      <path id="TimesNewRomanPS-BoldMT-6f" d="M 1594 3009 
Q 1975 3009 2303 2812 
Q 2631 2616 2801 2253 
Q 2972 1891 2972 1459 
Q 2972 838 2656 419 
Q 2275 -88 1603 -88 
Q 944 -88 587 375 
Q 231 838 231 1447 
Q 231 2075 595 2542 
Q 959 3009 1594 3009 
z
M 1606 2788 
Q 1447 2788 1333 2667 
Q 1219 2547 1183 2192 
Q 1147 1838 1147 1206 
Q 1147 872 1191 581 
Q 1225 359 1337 243 
Q 1450 128 1594 128 
Q 1734 128 1828 206 
Q 1950 313 1991 503 
Q 2053 800 2053 1703 
Q 2053 2234 1993 2432 
Q 1934 2631 1819 2722 
Q 1738 2788 1606 2788 
z
" transform="scale(0.015625)"/>
      <path id="TimesNewRomanPS-BoldMT-74" d="M 1375 3991 
L 1375 2922 
L 2069 2922 
L 2069 2613 
L 1375 2613 
L 1375 809 
Q 1375 556 1398 482 
Q 1422 409 1481 364 
Q 1541 319 1591 319 
Q 1794 319 1975 628 
L 2069 559 
Q 1816 -41 1247 -41 
Q 969 -41 776 114 
Q 584 269 531 459 
Q 500 566 500 1034 
L 500 2613 
L 119 2613 
L 119 2722 
Q 513 3000 789 3306 
Q 1066 3613 1272 3991 
L 1375 3991 
z
" transform="scale(0.015625)"/>
      <path id="TimesNewRomanPS-BoldMT-79" d="M 1556 -119 
L 613 2047 
Q 400 2538 298 2650 
Q 197 2763 53 2806 
L 53 2922 
L 1606 2922 
L 1606 2806 
Q 1453 2800 1390 2747 
Q 1328 2694 1328 2619 
Q 1328 2500 1484 2150 
L 1984 1006 
L 2325 1891 
Q 2509 2363 2509 2547 
Q 2509 2663 2432 2731 
Q 2356 2800 2163 2806 
L 2163 2922 
L 3141 2922 
L 3141 2806 
Q 2997 2791 2906 2695 
Q 2816 2600 2603 2047 
L 1769 -119 
Q 1453 -931 1300 -1119 
Q 1084 -1381 759 -1381 
Q 500 -1381 339 -1232 
Q 178 -1084 178 -875 
Q 178 -694 289 -575 
Q 400 -456 563 -456 
Q 719 -456 814 -556 
Q 909 -656 913 -866 
Q 916 -984 941 -1019 
Q 966 -1053 1013 -1053 
Q 1088 -1053 1172 -963 
Q 1297 -831 1466 -363 
L 1556 -119 
z
" transform="scale(0.015625)"/>
      <path id="TimesNewRomanPS-BoldMT-70" d="M 1347 297 
L 1347 -791 
Q 1347 -1016 1383 -1097 
Q 1419 -1178 1494 -1215 
Q 1569 -1253 1788 -1253 
L 1788 -1369 
L 122 -1369 
L 122 -1253 
Q 316 -1247 409 -1144 
Q 472 -1072 472 -772 
L 472 2313 
Q 472 2622 400 2708 
Q 328 2794 122 2806 
L 122 2922 
L 1347 2922 
L 1347 2538 
Q 1500 2763 1659 2863 
Q 1888 3009 2156 3009 
Q 2478 3009 2742 2806 
Q 3006 2603 3143 2245 
Q 3281 1888 3281 1475 
Q 3281 1031 3139 664 
Q 2997 297 2726 104 
Q 2456 -88 2125 -88 
Q 1884 -88 1675 19 
Q 1519 100 1347 297 
z
M 1347 613 
Q 1616 231 1922 231 
Q 2091 231 2200 409 
Q 2363 672 2363 1409 
Q 2363 2166 2184 2444 
Q 2066 2628 1866 2628 
Q 1550 2628 1347 2172 
L 1347 613 
z
" transform="scale(0.015625)"/>
      <path id="TimesNewRomanPS-BoldMT-20" transform="scale(0.015625)"/>
      <path id="TimesNewRomanPS-BoldMT-46" d="M 1759 3994 
L 1759 2253 
L 1881 2253 
Q 2163 2253 2341 2337 
Q 2519 2422 2642 2622 
Q 2766 2822 2803 3163 
L 2913 3163 
L 2913 1034 
L 2803 1034 
Q 2744 1638 2480 1830 
Q 2216 2022 1881 2022 
L 1759 2022 
L 1759 725 
Q 1759 400 1795 319 
Q 1831 238 1936 177 
Q 2041 116 2219 116 
L 2359 116 
L 2359 0 
L 144 0 
L 144 116 
L 284 116 
Q 469 116 581 181 
Q 663 225 706 331 
Q 741 406 741 725 
L 741 3513 
Q 741 3838 706 3919 
Q 672 4000 567 4061 
Q 463 4122 284 4122 
L 144 4122 
L 144 4238 
L 3719 4238 
L 3719 3022 
L 3591 3022 
Q 3547 3450 3367 3656 
Q 3188 3863 2847 3947 
Q 2659 3994 2153 3994 
L 1759 3994 
z
" transform="scale(0.015625)"/>
      <path id="TimesNewRomanPS-BoldMT-72" d="M 1428 2922 
L 1428 2259 
Q 1719 2713 1937 2861 
Q 2156 3009 2359 3009 
Q 2534 3009 2639 2901 
Q 2744 2794 2744 2597 
Q 2744 2388 2642 2272 
Q 2541 2156 2397 2156 
Q 2231 2156 2109 2262 
Q 1988 2369 1966 2381 
Q 1934 2400 1894 2400 
Q 1803 2400 1722 2331 
Q 1594 2225 1528 2028 
Q 1428 1725 1428 1359 
L 1428 688 
L 1431 513 
Q 1431 334 1453 284 
Q 1491 200 1564 161 
Q 1638 122 1813 113 
L 1813 0 
L 234 0 
L 234 113 
Q 425 128 492 217 
Q 559 306 559 688 
L 559 2303 
Q 559 2553 534 2622 
Q 503 2709 443 2750 
Q 384 2791 234 2806 
L 234 2922 
L 1428 2922 
z
" transform="scale(0.015625)"/>
      <path id="TimesNewRomanPS-BoldMT-71" d="M 2178 306 
Q 1988 106 1822 25 
Q 1603 -88 1366 -88 
Q 816 -88 497 403 
Q 244 794 244 1338 
Q 244 1791 436 2189 
Q 628 2588 964 2798 
Q 1300 3009 1675 3009 
Q 1925 3009 2120 2925 
Q 2316 2841 2456 2669 
L 2947 3009 
L 3053 3009 
L 3053 -775 
Q 3053 -1063 3103 -1134 
Q 3184 -1250 3431 -1253 
L 3431 -1369 
L 1744 -1369 
L 1744 -1253 
Q 1938 -1253 2025 -1209 
Q 2113 -1166 2145 -1094 
Q 2178 -1022 2178 -800 
L 2178 306 
z
M 2178 591 
L 2178 1794 
Q 2178 2297 2123 2459 
Q 2069 2622 1922 2741 
Q 1847 2800 1731 2800 
Q 1494 2800 1363 2591 
Q 1156 2269 1156 1394 
Q 1156 722 1334 450 
Q 1456 266 1650 266 
Q 1763 266 1905 344 
Q 2047 422 2178 591 
z
" transform="scale(0.015625)"/>
      <path id="TimesNewRomanPS-BoldMT-75" d="M 3038 2922 
L 3038 634 
Q 3038 300 3100 217 
Q 3163 134 3353 113 
L 3353 0 
L 2163 0 
L 2163 391 
Q 1953 141 1743 26 
Q 1534 -88 1275 -88 
Q 1028 -88 836 64 
Q 644 216 578 419 
Q 513 622 513 1128 
L 513 2288 
Q 513 2619 452 2700 
Q 391 2781 197 2806 
L 197 2922 
L 1388 2922 
L 1388 925 
Q 1388 613 1417 522 
Q 1447 431 1511 384 
Q 1575 338 1659 338 
Q 1772 338 1863 397 
Q 1988 478 2163 725 
L 2163 2288 
Q 2163 2619 2102 2700 
Q 2041 2781 1847 2806 
L 1847 2922 
L 3038 2922 
z
" transform="scale(0.015625)"/>
      <path id="TimesNewRomanPS-BoldMT-63" d="M 2600 753 
L 2697 678 
Q 2491 291 2183 101 
Q 1875 -88 1528 -88 
Q 944 -88 594 353 
Q 244 794 244 1413 
Q 244 2009 563 2463 
Q 947 3009 1622 3009 
Q 2075 3009 2342 2781 
Q 2609 2553 2609 2272 
Q 2609 2094 2501 1987 
Q 2394 1881 2219 1881 
Q 2034 1881 1914 2003 
Q 1794 2125 1766 2438 
Q 1747 2634 1675 2713 
Q 1603 2791 1506 2791 
Q 1356 2791 1250 2631 
Q 1088 2391 1088 1894 
Q 1088 1481 1219 1104 
Q 1350 728 1578 544 
Q 1750 409 1984 409 
Q 2138 409 2275 481 
Q 2413 553 2600 753 
z
" transform="scale(0.015625)"/>
      <path id="TimesNewRomanPS-BoldMT-41" d="M 2663 1206 
L 1166 1206 
L 988 794 
Q 900 588 900 453 
Q 900 275 1044 191 
Q 1128 141 1459 116 
L 1459 0 
L 50 0 
L 50 116 
Q 278 150 425 304 
Q 572 459 788 944 
L 2303 4325 
L 2363 4325 
L 3891 850 
Q 4109 356 4250 228 
Q 4356 131 4550 116 
L 4550 0 
L 2500 0 
L 2500 116 
L 2584 116 
Q 2831 116 2931 184 
Q 3000 234 3000 328 
Q 3000 384 2981 444 
Q 2975 472 2888 678 
L 2663 1206 
z
M 2556 1438 
L 1925 2897 
L 1275 1438 
L 2556 1438 
z
" transform="scale(0.015625)"/>
      <path id="TimesNewRomanPS-BoldMT-61" d="M 1828 431 
Q 1294 -41 869 -41 
Q 619 -41 453 123 
Q 288 288 288 534 
Q 288 869 575 1136 
Q 863 1403 1828 1847 
L 1828 2141 
Q 1828 2472 1792 2558 
Q 1756 2644 1656 2708 
Q 1556 2772 1431 2772 
Q 1228 2772 1097 2681 
Q 1016 2625 1016 2550 
Q 1016 2484 1103 2388 
Q 1222 2253 1222 2128 
Q 1222 1975 1108 1867 
Q 994 1759 809 1759 
Q 613 1759 480 1878 
Q 347 1997 347 2156 
Q 347 2381 525 2586 
Q 703 2791 1022 2900 
Q 1341 3009 1684 3009 
Q 2100 3009 2342 2832 
Q 2584 2656 2656 2450 
Q 2700 2319 2700 1847 
L 2700 713 
Q 2700 513 2715 461 
Q 2731 409 2762 384 
Q 2794 359 2834 359 
Q 2916 359 3000 475 
L 3094 400 
Q 2938 169 2770 64 
Q 2603 -41 2391 -41 
Q 2141 -41 2000 76 
Q 1859 194 1828 431 
z
M 1828 659 
L 1828 1638 
Q 1450 1416 1266 1163 
Q 1144 994 1144 822 
Q 1144 678 1247 569 
Q 1325 484 1466 484 
Q 1622 484 1828 659 
z
" transform="scale(0.015625)"/>
      <path id="TimesNewRomanPS-BoldMT-6c" d="M 1359 4238 
L 1359 606 
Q 1359 297 1431 211 
Q 1503 125 1713 113 
L 1713 0 
L 134 0 
L 134 113 
Q 328 119 422 225 
Q 484 297 484 606 
L 484 3631 
Q 484 3938 412 4023 
Q 341 4109 134 4122 
L 134 4238 
L 1359 4238 
z
" transform="scale(0.015625)"/>
      <path id="TimesNewRomanPS-BoldMT-73" d="M 2063 3003 
L 2109 2006 
L 2003 2006 
Q 1813 2450 1608 2612 
Q 1403 2775 1200 2775 
Q 1072 2775 981 2689 
Q 891 2603 891 2491 
Q 891 2406 953 2328 
Q 1053 2200 1512 1889 
Q 1972 1578 2117 1361 
Q 2263 1144 2263 875 
Q 2263 631 2141 397 
Q 2019 163 1797 37 
Q 1575 -88 1306 -88 
Q 1097 -88 747 44 
Q 653 78 619 78 
Q 516 78 447 -78 
L 344 -78 
L 294 972 
L 400 972 
Q 541 559 786 353 
Q 1031 147 1250 147 
Q 1400 147 1495 239 
Q 1591 331 1591 463 
Q 1591 613 1497 722 
Q 1403 831 1078 1053 
Q 600 1384 459 1559 
Q 253 1816 253 2125 
Q 253 2463 486 2736 
Q 719 3009 1159 3009 
Q 1397 3009 1619 2894 
Q 1703 2847 1756 2847 
Q 1813 2847 1847 2870 
Q 1881 2894 1956 3003 
L 2063 3003 
z
" transform="scale(0.015625)"/>
      <path id="TimesNewRomanPS-BoldMT-69" d="M 919 4338 
Q 1122 4338 1262 4195 
Q 1403 4053 1403 3853 
Q 1403 3653 1261 3512 
Q 1119 3372 919 3372 
Q 719 3372 578 3512 
Q 438 3653 438 3853 
Q 438 4053 578 4195 
Q 719 4338 919 4338 
z
M 1356 2922 
L 1356 606 
Q 1356 297 1428 211 
Q 1500 125 1709 113 
L 1709 0 
L 131 0 
L 131 113 
Q 325 119 419 225 
Q 481 297 481 606 
L 481 2313 
Q 481 2622 409 2708 
Q 338 2794 131 2806 
L 131 2922 
L 1356 2922 
z
" transform="scale(0.015625)"/>
      <path id="TimesNewRomanPS-BoldMT-66" d="M 1497 2616 
L 1497 588 
Q 1497 294 1559 219 
Q 1659 103 1928 113 
L 1928 0 
L 206 0 
L 206 113 
Q 403 116 486 158 
Q 569 200 600 275 
Q 631 350 631 588 
L 631 2616 
L 206 2616 
L 206 2922 
L 631 2922 
L 631 3138 
L 628 3284 
Q 628 3734 958 4034 
Q 1288 4334 1850 4334 
Q 2234 4334 2420 4190 
Q 2606 4047 2606 3872 
Q 2606 3731 2490 3628 
Q 2375 3525 2184 3525 
Q 2022 3525 1926 3609 
Q 1831 3694 1831 3797 
Q 1831 3825 1850 3913 
Q 1863 3966 1863 4013 
Q 1863 4078 1825 4109 
Q 1775 4156 1703 4156 
Q 1613 4156 1552 4081 
Q 1491 4006 1491 3841 
L 1497 3294 
L 1497 2922 
L 1928 2922 
L 1928 2616 
L 1497 2616 
z
" transform="scale(0.015625)"/>
      <path id="TimesNewRomanPS-BoldMT-4c" d="M 4041 1488 
L 3881 0 
L 119 0 
L 119 116 
L 259 116 
Q 444 116 556 181 
Q 638 225 681 331 
Q 716 406 716 725 
L 716 3513 
Q 716 3838 681 3919 
Q 647 4000 542 4061 
Q 438 4122 259 4122 
L 119 4122 
L 119 4238 
L 2378 4238 
L 2378 4122 
L 2194 4122 
Q 2009 4122 1897 4056 
Q 1816 4013 1769 3906 
Q 1734 3831 1734 3513 
L 1734 813 
Q 1734 488 1771 398 
Q 1809 309 1919 266 
Q 1997 238 2297 238 
L 2650 238 
Q 2988 238 3213 356 
Q 3438 475 3602 731 
Q 3766 988 3913 1488 
L 4041 1488 
z
" transform="scale(0.015625)"/>
      <path id="TimesNewRomanPS-BoldMT-77" d="M 3113 -88 
L 2313 2056 
L 1528 -88 
L 1366 -88 
L 588 2031 
Q 413 2516 291 2663 
Q 213 2763 53 2806 
L 53 2922 
L 1528 2922 
L 1528 2806 
Q 1378 2806 1322 2762 
Q 1266 2719 1266 2663 
Q 1266 2609 1366 2344 
L 1794 1203 
L 2206 2344 
L 2175 2419 
Q 2081 2653 2011 2717 
Q 1941 2781 1794 2806 
L 1794 2922 
L 3291 2922 
L 3291 2806 
Q 3116 2797 3069 2758 
Q 3022 2719 3022 2647 
Q 3022 2578 3113 2344 
L 3525 1203 
L 3900 2253 
Q 3981 2478 3981 2559 
Q 3981 2681 3922 2737 
Q 3863 2794 3691 2806 
L 3691 2922 
L 4556 2922 
L 4556 2806 
Q 4413 2788 4328 2705 
Q 4244 2622 4109 2234 
L 3291 -88 
L 3113 -88 
z
" transform="scale(0.015625)"/>
      <path id="TimesNewRomanPS-BoldMT-53" d="M 3006 4334 
L 3041 2922 
L 2913 2922 
Q 2822 3453 2467 3776 
Q 2113 4100 1700 4100 
Q 1381 4100 1195 3929 
Q 1009 3759 1009 3538 
Q 1009 3397 1075 3288 
Q 1166 3141 1366 2997 
Q 1513 2894 2044 2631 
Q 2788 2266 3047 1941 
Q 3303 1616 3303 1197 
Q 3303 666 2889 283 
Q 2475 -100 1838 -100 
Q 1638 -100 1459 -59 
Q 1281 -19 1013 94 
Q 863 156 766 156 
Q 684 156 593 93 
Q 503 31 447 -97 
L 331 -97 
L 331 1503 
L 447 1503 
Q 584 828 976 473 
Q 1369 119 1822 119 
Q 2172 119 2380 309 
Q 2588 500 2588 753 
Q 2588 903 2508 1043 
Q 2428 1184 2265 1311 
Q 2103 1438 1691 1641 
Q 1113 1925 859 2125 
Q 606 2325 470 2572 
Q 334 2819 334 3116 
Q 334 3622 706 3978 
Q 1078 4334 1644 4334 
Q 1850 4334 2044 4284 
Q 2191 4247 2402 4145 
Q 2613 4044 2697 4044 
Q 2778 4044 2825 4094 
Q 2872 4144 2913 4334 
L 3006 4334 
z
" transform="scale(0.015625)"/>
      <path id="TimesNewRomanPS-BoldMT-68" d="M 1409 4238 
L 1409 2547 
Q 1650 2800 1850 2904 
Q 2050 3009 2266 3009 
Q 2541 3009 2736 2853 
Q 2931 2697 2995 2486 
Q 3059 2275 3059 1775 
L 3059 634 
Q 3059 300 3121 217 
Q 3184 134 3375 113 
L 3375 0 
L 1894 0 
L 1894 113 
Q 2050 134 2128 238 
Q 2184 319 2184 634 
L 2184 1938 
Q 2184 2300 2156 2392 
Q 2128 2484 2061 2536 
Q 1994 2588 1909 2588 
Q 1784 2588 1665 2502 
Q 1547 2416 1409 2200 
L 1409 634 
Q 1409 322 1456 244 
Q 1516 138 1700 113 
L 1700 0 
L 219 0 
L 219 113 
Q 403 131 481 231 
Q 534 300 534 634 
L 534 3603 
Q 534 3934 473 4015 
Q 413 4097 219 4122 
L 219 4238 
L 1409 4238 
z
" transform="scale(0.015625)"/>
      <path id="TimesNewRomanPS-BoldMT-64" d="M 3056 4238 
L 3056 875 
Q 3056 534 3075 472 
Q 3100 369 3170 319 
Q 3241 269 3416 256 
L 3416 153 
L 2181 -88 
L 2181 375 
Q 1959 106 1786 9 
Q 1613 -88 1394 -88 
Q 834 -88 509 413 
Q 247 819 247 1409 
Q 247 1881 409 2254 
Q 572 2628 855 2818 
Q 1138 3009 1463 3009 
Q 1672 3009 1834 2928 
Q 1997 2847 2181 2644 
L 2181 3525 
Q 2181 3859 2153 3928 
Q 2116 4019 2041 4062 
Q 1966 4106 1759 4106 
L 1759 4238 
L 3056 4238 
z
M 2181 2256 
Q 1950 2700 1616 2700 
Q 1500 2700 1425 2638 
Q 1309 2541 1236 2297 
Q 1163 2053 1163 1550 
Q 1163 997 1244 731 
Q 1325 466 1466 347 
Q 1538 288 1663 288 
Q 1938 288 2181 719 
L 2181 2256 
z
" transform="scale(0.015625)"/>
      <path id="TimesNewRomanPS-BoldMT-6d" d="M 1428 2922 
L 1428 2538 
Q 1669 2800 1873 2904 
Q 2078 3009 2322 3009 
Q 2603 3009 2793 2878 
Q 2984 2747 3088 2478 
Q 3338 2759 3567 2884 
Q 3797 3009 4047 3009 
Q 4350 3009 4529 2870 
Q 4709 2731 4779 2517 
Q 4850 2303 4850 1834 
L 4850 638 
Q 4850 300 4911 219 
Q 4972 138 5166 113 
L 5166 0 
L 3656 0 
L 3656 113 
Q 3834 128 3919 250 
Q 3975 334 3975 638 
L 3975 1894 
Q 3975 2284 3944 2390 
Q 3913 2497 3845 2548 
Q 3778 2600 3688 2600 
Q 3553 2600 3415 2501 
Q 3278 2403 3138 2206 
L 3138 638 
Q 3138 322 3191 241 
Q 3263 125 3466 113 
L 3466 0 
L 1953 0 
L 1953 113 
Q 2075 119 2145 173 
Q 2216 228 2239 304 
Q 2263 381 2263 638 
L 2263 1894 
Q 2263 2291 2231 2391 
Q 2200 2491 2126 2547 
Q 2053 2603 1969 2603 
Q 1844 2603 1741 2538 
Q 1594 2441 1428 2206 
L 1428 638 
Q 1428 328 1489 229 
Q 1550 131 1744 113 
L 1744 0 
L 238 0 
L 238 113 
Q 422 131 500 231 
Q 553 300 553 638 
L 553 2288 
Q 553 2619 492 2700 
Q 431 2781 238 2806 
L 238 2922 
L 1428 2922 
z
" transform="scale(0.015625)"/>
      <path id="TimesNewRomanPS-BoldMT-42" d="M 2847 2247 
Q 3450 2106 3694 1906 
Q 4044 1622 4044 1169 
Q 4044 691 3659 378 
Q 3188 0 2288 0 
L 134 0 
L 134 116 
Q 428 116 533 170 
Q 638 225 680 312 
Q 722 400 722 744 
L 722 3494 
Q 722 3838 680 3927 
Q 638 4016 531 4069 
Q 425 4122 134 4122 
L 134 4238 
L 2166 4238 
Q 2894 4238 3197 4108 
Q 3500 3978 3675 3720 
Q 3850 3463 3850 3172 
Q 3850 2866 3628 2627 
Q 3406 2388 2847 2247 
z
M 1709 2331 
Q 2153 2331 2364 2431 
Q 2575 2531 2687 2712 
Q 2800 2894 2800 3175 
Q 2800 3456 2689 3636 
Q 2578 3816 2372 3909 
Q 2166 4003 1709 4000 
L 1709 2331 
z
M 1709 2088 
L 1709 728 
L 1706 572 
Q 1706 403 1792 317 
Q 1878 231 2047 231 
Q 2297 231 2508 342 
Q 2719 453 2831 664 
Q 2944 875 2944 1134 
Q 2944 1431 2806 1667 
Q 2669 1903 2428 1997 
Q 2188 2091 1709 2088 
z
" transform="scale(0.015625)"/>
      <path id="TimesNewRomanPS-BoldMT-50" d="M 1728 1919 
L 1728 744 
Q 1728 400 1770 311 
Q 1813 222 1920 169 
Q 2028 116 2316 116 
L 2316 0 
L 163 0 
L 163 116 
Q 456 116 561 170 
Q 666 225 708 312 
Q 750 400 750 744 
L 750 3494 
Q 750 3838 708 3927 
Q 666 4016 559 4069 
Q 453 4122 163 4122 
L 163 4238 
L 2009 4238 
Q 2922 4238 3319 3913 
Q 3716 3588 3716 3100 
Q 3716 2688 3459 2394 
Q 3203 2100 2753 1994 
Q 2450 1919 1728 1919 
z
M 1728 3994 
L 1728 2163 
Q 1831 2156 1884 2156 
Q 2266 2156 2472 2382 
Q 2678 2609 2678 3084 
Q 2678 3556 2472 3775 
Q 2266 3994 1856 3994 
L 1728 3994 
z
" transform="scale(0.015625)"/>
      <path id="TimesNewRomanPS-BoldMT-67" d="M 2091 2888 
L 3075 2888 
L 3075 2544 
L 2516 2544 
Q 2669 2391 2728 2266 
Q 2803 2097 2803 1913 
Q 2803 1600 2629 1370 
Q 2456 1141 2157 1011 
Q 1859 881 1628 881 
Q 1609 881 1253 897 
Q 1113 897 1017 805 
Q 922 713 922 584 
Q 922 472 1008 400 
Q 1094 328 1288 328 
L 1828 334 
Q 2484 334 2731 191 
Q 3084 -9 3084 -425 
Q 3084 -691 2921 -908 
Q 2759 -1125 2494 -1228 
Q 2091 -1381 1566 -1381 
Q 1172 -1381 847 -1304 
Q 522 -1228 381 -1092 
Q 241 -956 241 -806 
Q 241 -663 348 -548 
Q 456 -434 750 -356 
Q 344 -156 344 200 
Q 344 416 509 619 
Q 675 822 1034 972 
Q 616 1125 428 1375 
Q 241 1625 241 1953 
Q 241 2381 591 2695 
Q 941 3009 1491 3009 
Q 1781 3009 2091 2888 
z
M 1550 2816 
Q 1369 2816 1244 2633 
Q 1119 2450 1119 1875 
Q 1119 1409 1242 1236 
Q 1366 1063 1534 1063 
Q 1722 1063 1847 1234 
Q 1972 1406 1972 1903 
Q 1972 2463 1831 2666 
Q 1731 2816 1550 2816 
z
M 1366 -431 
Q 1047 -431 944 -484 
Q 766 -581 766 -747 
Q 766 -906 950 -1036 
Q 1134 -1166 1644 -1166 
Q 2078 -1166 2326 -1050 
Q 2575 -934 2575 -725 
Q 2575 -647 2528 -594 
Q 2444 -500 2273 -465 
Q 2103 -431 1366 -431 
z
" transform="scale(0.015625)"/>
     </defs>
     <use xlink:href="#TimesNewRomanPS-BoldMT-47"/>
     <use xlink:href="#TimesNewRomanPS-BoldMT-65" x="77.783203"/>
     <use xlink:href="#TimesNewRomanPS-BoldMT-6e" x="122.167969"/>
     <use xlink:href="#TimesNewRomanPS-BoldMT-6f" x="177.783203"/>
     <use xlink:href="#TimesNewRomanPS-BoldMT-74" x="227.783203"/>
     <use xlink:href="#TimesNewRomanPS-BoldMT-79" x="261.083984"/>
     <use xlink:href="#TimesNewRomanPS-BoldMT-70" x="311.083984"/>
     <use xlink:href="#TimesNewRomanPS-BoldMT-65" x="366.699219"/>
     <use xlink:href="#TimesNewRomanPS-BoldMT-20" x="411.083984"/>
     <use xlink:href="#TimesNewRomanPS-BoldMT-46" x="436.083984"/>
     <use xlink:href="#TimesNewRomanPS-BoldMT-72" x="497.167969"/>
     <use xlink:href="#TimesNewRomanPS-BoldMT-65" x="539.802734"/>
     <use xlink:href="#TimesNewRomanPS-BoldMT-71" x="584.1875"/>
     <use xlink:href="#TimesNewRomanPS-BoldMT-75" x="639.802734"/>
     <use xlink:href="#TimesNewRomanPS-BoldMT-65" x="695.417969"/>
     <use xlink:href="#TimesNewRomanPS-BoldMT-6e" x="739.802734"/>
     <use xlink:href="#TimesNewRomanPS-BoldMT-63" x="795.417969"/>
     <use xlink:href="#TimesNewRomanPS-BoldMT-79" x="839.802734"/>
     <use xlink:href="#TimesNewRomanPS-BoldMT-20" x="889.802734"/>
     <use xlink:href="#TimesNewRomanPS-BoldMT-41" x="909.302734"/>
     <use xlink:href="#TimesNewRomanPS-BoldMT-6e" x="981.519531"/>
     <use xlink:href="#TimesNewRomanPS-BoldMT-61" x="1037.134766"/>
     <use xlink:href="#TimesNewRomanPS-BoldMT-6c" x="1087.134766"/>
     <use xlink:href="#TimesNewRomanPS-BoldMT-79" x="1114.917969"/>
     <use xlink:href="#TimesNewRomanPS-BoldMT-73" x="1164.917969"/>
     <use xlink:href="#TimesNewRomanPS-BoldMT-69" x="1203.833984"/>
     <use xlink:href="#TimesNewRomanPS-BoldMT-73" x="1231.617188"/>
     <use xlink:href="#TimesNewRomanPS-BoldMT-20" x="1270.533203"/>
     <use xlink:href="#TimesNewRomanPS-BoldMT-66" x="1295.533203"/>
     <use xlink:href="#TimesNewRomanPS-BoldMT-6f" x="1328.833984"/>
     <use xlink:href="#TimesNewRomanPS-BoldMT-72" x="1378.833984"/>
     <use xlink:href="#TimesNewRomanPS-BoldMT-20" x="1421.46875"/>
     <use xlink:href="#TimesNewRomanPS-BoldMT-4c" x="1446.46875"/>
     <use xlink:href="#TimesNewRomanPS-BoldMT-61" x="1513.167969"/>
     <use xlink:href="#TimesNewRomanPS-BoldMT-77" x="1563.167969"/>
     <use xlink:href="#TimesNewRomanPS-BoldMT-20" x="1635.384766"/>
     <use xlink:href="#TimesNewRomanPS-BoldMT-53" x="1660.384766"/>
     <use xlink:href="#TimesNewRomanPS-BoldMT-63" x="1716"/>
     <use xlink:href="#TimesNewRomanPS-BoldMT-68" x="1760.384766"/>
     <use xlink:href="#TimesNewRomanPS-BoldMT-6f" x="1816"/>
     <use xlink:href="#TimesNewRomanPS-BoldMT-6f" x="1866"/>
     <use xlink:href="#TimesNewRomanPS-BoldMT-6c" x="1916"/>
     <use xlink:href="#TimesNewRomanPS-BoldMT-20" x="1943.783203"/>
     <use xlink:href="#TimesNewRomanPS-BoldMT-41" x="1963.283203"/>
     <use xlink:href="#TimesNewRomanPS-BoldMT-64" x="2035.5"/>
     <use xlink:href="#TimesNewRomanPS-BoldMT-6d" x="2091.115234"/>
     <use xlink:href="#TimesNewRomanPS-BoldMT-69" x="2174.416016"/>
     <use xlink:href="#TimesNewRomanPS-BoldMT-73" x="2202.199219"/>
     <use xlink:href="#TimesNewRomanPS-BoldMT-73" x="2241.115234"/>
     <use xlink:href="#TimesNewRomanPS-BoldMT-69" x="2280.03125"/>
     <use xlink:href="#TimesNewRomanPS-BoldMT-6f" x="2307.814453"/>
     <use xlink:href="#TimesNewRomanPS-BoldMT-6e" x="2357.814453"/>
     <use xlink:href="#TimesNewRomanPS-BoldMT-20" x="2413.429688"/>
     <use xlink:href="#TimesNewRomanPS-BoldMT-42" x="2438.429688"/>
     <use xlink:href="#TimesNewRomanPS-BoldMT-61" x="2505.128906"/>
     <use xlink:href="#TimesNewRomanPS-BoldMT-72" x="2555.128906"/>
     <use xlink:href="#TimesNewRomanPS-BoldMT-20" x="2597.763672"/>
     <use xlink:href="#TimesNewRomanPS-BoldMT-50" x="2622.763672"/>
     <use xlink:href="#TimesNewRomanPS-BoldMT-61" x="2683.847656"/>
     <use xlink:href="#TimesNewRomanPS-BoldMT-73" x="2733.847656"/>
     <use xlink:href="#TimesNewRomanPS-BoldMT-73" x="2772.763672"/>
     <use xlink:href="#TimesNewRomanPS-BoldMT-61" x="2811.679688"/>
     <use xlink:href="#TimesNewRomanPS-BoldMT-67" x="2861.679688"/>
     <use xlink:href="#TimesNewRomanPS-BoldMT-65" x="2911.679688"/>
    </g>
   </g>
  </g>
 </g>
 <defs>
  <clipPath id="p78b446f8d8">
   <rect x="49.999688" y="22.689375" width="669.6" height="443.52"/>
  </clipPath>
 </defs>
</svg>
