<?xml version="1.0" encoding="utf-8" standalone="no"?>
<!DOCTYPE svg PUBLIC "-//W3C//DTD SVG 1.1//EN"
  "http://www.w3.org/Graphics/SVG/1.1/DTD/svg11.dtd">
<svg xmlns:xlink="http://www.w3.org/1999/xlink" width="734.49376pt" height="516.134994pt" viewBox="0 0 734.49376 516.134994" xmlns="http://www.w3.org/2000/svg" version="1.1">
 <metadata>
  <rdf:RDF xmlns:dc="http://purl.org/dc/elements/1.1/" xmlns:cc="http://creativecommons.org/ns#" xmlns:rdf="http://www.w3.org/1999/02/22-rdf-syntax-ns#">
   <cc:Work>
    <dc:type rdf:resource="http://purl.org/dc/dcmitype/StillImage"/>
    <dc:date>2024-08-23T12:41:46.603931</dc:date>
    <dc:format>image/svg+xml</dc:format>
    <dc:creator>
     <cc:Agent>
      <dc:title>Matplotlib v3.7.2, https://matplotlib.org/</dc:title>
     </cc:Agent>
    </dc:creator>
   </cc:Work>
  </rdf:RDF>
 </metadata>
 <defs>
  <style type="text/css">*{stroke-linejoin: round; stroke-linecap: butt}</style>
 </defs>
 <g id="figure_1">
  <g id="patch_1">
   <path d="M 0 516.134994 
L 734.49376 516.134994 
L 734.49376 0 
L 0 0 
z
" style="fill: #ffffff"/>
  </g>
  <g id="axes_1">
   <g id="patch_2">
    <path d="M 57.634688 466.209375 
L 727.234688 466.209375 
L 727.234688 22.689375 
L 57.634688 22.689375 
z
" style="fill: #ffffff"/>
   </g>
   <g id="PolyCollection_1"/>
   <g id="PolyCollection_2"/>
   <g id="PolyCollection_3"/>
   <g id="PolyCollection_4"/>
   <g id="PolyCollection_5"/>
   <g id="PolyCollection_6"/>
   <g id="PolyCollection_7"/>
   <g id="PolyCollection_8"/>
   <g id="PolyCollection_9"/>
   <g id="PolyCollection_10"/>
   <g id="PolyCollection_11"/>
   <g id="PolyCollection_12"/>
   <g id="PolyCollection_13"/>
   <g id="PolyCollection_14"/>
   <g id="matplotlib.axis_1">
    <g id="xtick_1">
     <g id="line2d_1">
      <path d="M 88.071051 466.209375 
L 88.071051 22.689375 
" clip-path="url(#pd0ce633ada)" style="fill: none; stroke-dasharray: 1.85,0.8; stroke-dashoffset: 0; stroke: #b0b0b0; stroke-width: 0.5"/>
     </g>
     <g id="line2d_2">
      <defs>
       <path id="m8d8d8bc20f" d="M 0 0 
L 0 3.5 
" style="stroke: #000000; stroke-width: 0.8"/>
      </defs>
      <g>
       <use xlink:href="#m8d8d8bc20f" x="88.071051" y="466.209375" style="stroke: #000000; stroke-width: 0.8"/>
      </g>
     </g>
     <g id="text_1">
      <!-- 0 -->
      <g transform="translate(87.713078 485.055623) rotate(-45) scale(0.12 -0.12)">
       <defs>
        <path id="DejaVuSans-30" d="M 2034 4250 
Q 1547 4250 1301 3770 
Q 1056 3291 1056 2328 
Q 1056 1369 1301 889 
Q 1547 409 2034 409 
Q 2525 409 2770 889 
Q 3016 1369 3016 2328 
Q 3016 3291 2770 3770 
Q 2525 4250 2034 4250 
z
M 2034 4750 
Q 2819 4750 3233 4129 
Q 3647 3509 3647 2328 
Q 3647 1150 3233 529 
Q 2819 -91 2034 -91 
Q 1250 -91 836 529 
Q 422 1150 422 2328 
Q 422 3509 836 4129 
Q 1250 4750 2034 4750 
z
" transform="scale(0.015625)"/>
       </defs>
       <use xlink:href="#DejaVuSans-30"/>
      </g>
     </g>
    </g>
    <g id="xtick_2">
     <g id="line2d_3">
      <path d="M 193.024029 466.209375 
L 193.024029 22.689375 
" clip-path="url(#pd0ce633ada)" style="fill: none; stroke-dasharray: 1.85,0.8; stroke-dashoffset: 0; stroke: #b0b0b0; stroke-width: 0.5"/>
     </g>
     <g id="line2d_4">
      <g>
       <use xlink:href="#m8d8d8bc20f" x="193.024029" y="466.209375" style="stroke: #000000; stroke-width: 0.8"/>
      </g>
     </g>
     <g id="text_2">
      <!-- 5 -->
      <g transform="translate(192.666056 485.055623) rotate(-45) scale(0.12 -0.12)">
       <defs>
        <path id="DejaVuSans-35" d="M 691 4666 
L 3169 4666 
L 3169 4134 
L 1269 4134 
L 1269 2991 
Q 1406 3038 1543 3061 
Q 1681 3084 1819 3084 
Q 2600 3084 3056 2656 
Q 3513 2228 3513 1497 
Q 3513 744 3044 326 
Q 2575 -91 1722 -91 
Q 1428 -91 1123 -41 
Q 819 9 494 109 
L 494 744 
Q 775 591 1075 516 
Q 1375 441 1709 441 
Q 2250 441 2565 725 
Q 2881 1009 2881 1497 
Q 2881 1984 2565 2268 
Q 2250 2553 1709 2553 
Q 1456 2553 1204 2497 
Q 953 2441 691 2322 
L 691 4666 
z
" transform="scale(0.015625)"/>
       </defs>
       <use xlink:href="#DejaVuSans-35"/>
      </g>
     </g>
    </g>
    <g id="xtick_3">
     <g id="line2d_5">
      <path d="M 297.977007 466.209375 
L 297.977007 22.689375 
" clip-path="url(#pd0ce633ada)" style="fill: none; stroke-dasharray: 1.85,0.8; stroke-dashoffset: 0; stroke: #b0b0b0; stroke-width: 0.5"/>
     </g>
     <g id="line2d_6">
      <g>
       <use xlink:href="#m8d8d8bc20f" x="297.977007" y="466.209375" style="stroke: #000000; stroke-width: 0.8"/>
      </g>
     </g>
     <g id="text_3">
      <!-- 10 -->
      <g transform="translate(294.919654 490.454384) rotate(-45) scale(0.12 -0.12)">
       <defs>
        <path id="DejaVuSans-31" d="M 794 531 
L 1825 531 
L 1825 4091 
L 703 3866 
L 703 4441 
L 1819 4666 
L 2450 4666 
L 2450 531 
L 3481 531 
L 3481 0 
L 794 0 
L 794 531 
z
" transform="scale(0.015625)"/>
       </defs>
       <use xlink:href="#DejaVuSans-31"/>
       <use xlink:href="#DejaVuSans-30" x="63.623047"/>
      </g>
     </g>
    </g>
    <g id="xtick_4">
     <g id="line2d_7">
      <path d="M 402.929985 466.209375 
L 402.929985 22.689375 
" clip-path="url(#pd0ce633ada)" style="fill: none; stroke-dasharray: 1.85,0.8; stroke-dashoffset: 0; stroke: #b0b0b0; stroke-width: 0.5"/>
     </g>
     <g id="line2d_8">
      <g>
       <use xlink:href="#m8d8d8bc20f" x="402.929985" y="466.209375" style="stroke: #000000; stroke-width: 0.8"/>
      </g>
     </g>
     <g id="text_4">
      <!-- 15 -->
      <g transform="translate(399.872632 490.454384) rotate(-45) scale(0.12 -0.12)">
       <use xlink:href="#DejaVuSans-31"/>
       <use xlink:href="#DejaVuSans-35" x="63.623047"/>
      </g>
     </g>
    </g>
    <g id="xtick_5">
     <g id="line2d_9">
      <path d="M 507.882963 466.209375 
L 507.882963 22.689375 
" clip-path="url(#pd0ce633ada)" style="fill: none; stroke-dasharray: 1.85,0.8; stroke-dashoffset: 0; stroke: #b0b0b0; stroke-width: 0.5"/>
     </g>
     <g id="line2d_10">
      <g>
       <use xlink:href="#m8d8d8bc20f" x="507.882963" y="466.209375" style="stroke: #000000; stroke-width: 0.8"/>
      </g>
     </g>
     <g id="text_5">
      <!-- 20 -->
      <g transform="translate(504.82561 490.454384) rotate(-45) scale(0.12 -0.12)">
       <defs>
        <path id="DejaVuSans-32" d="M 1228 531 
L 3431 531 
L 3431 0 
L 469 0 
L 469 531 
Q 828 903 1448 1529 
Q 2069 2156 2228 2338 
Q 2531 2678 2651 2914 
Q 2772 3150 2772 3378 
Q 2772 3750 2511 3984 
Q 2250 4219 1831 4219 
Q 1534 4219 1204 4116 
Q 875 4013 500 3803 
L 500 4441 
Q 881 4594 1212 4672 
Q 1544 4750 1819 4750 
Q 2544 4750 2975 4387 
Q 3406 4025 3406 3419 
Q 3406 3131 3298 2873 
Q 3191 2616 2906 2266 
Q 2828 2175 2409 1742 
Q 1991 1309 1228 531 
z
" transform="scale(0.015625)"/>
       </defs>
       <use xlink:href="#DejaVuSans-32"/>
       <use xlink:href="#DejaVuSans-30" x="63.623047"/>
      </g>
     </g>
    </g>
    <g id="xtick_6">
     <g id="line2d_11">
      <path d="M 612.835941 466.209375 
L 612.835941 22.689375 
" clip-path="url(#pd0ce633ada)" style="fill: none; stroke-dasharray: 1.85,0.8; stroke-dashoffset: 0; stroke: #b0b0b0; stroke-width: 0.5"/>
     </g>
     <g id="line2d_12">
      <g>
       <use xlink:href="#m8d8d8bc20f" x="612.835941" y="466.209375" style="stroke: #000000; stroke-width: 0.8"/>
      </g>
     </g>
     <g id="text_6">
      <!-- 25 -->
      <g transform="translate(609.778588 490.454384) rotate(-45) scale(0.12 -0.12)">
       <use xlink:href="#DejaVuSans-32"/>
       <use xlink:href="#DejaVuSans-35" x="63.623047"/>
      </g>
     </g>
    </g>
    <g id="xtick_7">
     <g id="line2d_13">
      <path d="M 717.788919 466.209375 
L 717.788919 22.689375 
" clip-path="url(#pd0ce633ada)" style="fill: none; stroke-dasharray: 1.85,0.8; stroke-dashoffset: 0; stroke: #b0b0b0; stroke-width: 0.5"/>
     </g>
     <g id="line2d_14">
      <g>
       <use xlink:href="#m8d8d8bc20f" x="717.788919" y="466.209375" style="stroke: #000000; stroke-width: 0.8"/>
      </g>
     </g>
     <g id="text_7">
      <!-- 30 -->
      <g transform="translate(714.731567 490.454384) rotate(-45) scale(0.12 -0.12)">
       <defs>
        <path id="DejaVuSans-33" d="M 2597 2516 
Q 3050 2419 3304 2112 
Q 3559 1806 3559 1356 
Q 3559 666 3084 287 
Q 2609 -91 1734 -91 
Q 1441 -91 1130 -33 
Q 819 25 488 141 
L 488 750 
Q 750 597 1062 519 
Q 1375 441 1716 441 
Q 2309 441 2620 675 
Q 2931 909 2931 1356 
Q 2931 1769 2642 2001 
Q 2353 2234 1838 2234 
L 1294 2234 
L 1294 2753 
L 1863 2753 
Q 2328 2753 2575 2939 
Q 2822 3125 2822 3475 
Q 2822 3834 2567 4026 
Q 2313 4219 1838 4219 
Q 1578 4219 1281 4162 
Q 984 4106 628 3988 
L 628 4550 
Q 988 4650 1302 4700 
Q 1616 4750 1894 4750 
Q 2613 4750 3031 4423 
Q 3450 4097 3450 3541 
Q 3450 3153 3228 2886 
Q 3006 2619 2597 2516 
z
" transform="scale(0.015625)"/>
       </defs>
       <use xlink:href="#DejaVuSans-33"/>
       <use xlink:href="#DejaVuSans-30" x="63.623047"/>
      </g>
     </g>
    </g>
    <g id="text_8">
     <!-- Generation -->
     <g transform="translate(361.337187 505.940307) scale(0.14 -0.14)">
      <defs>
       <path id="TimesNewRomanPSMT-47" d="M 3928 4334 
L 4038 2997 
L 3928 2997 
Q 3763 3497 3500 3750 
Q 3122 4116 2528 4116 
Q 1719 4116 1297 3475 
Q 944 2934 944 2188 
Q 944 1581 1178 1081 
Q 1413 581 1792 348 
Q 2172 116 2572 116 
Q 2806 116 3025 175 
Q 3244 234 3447 350 
L 3447 1575 
Q 3447 1894 3398 1992 
Q 3350 2091 3248 2142 
Q 3147 2194 2891 2194 
L 2891 2313 
L 4531 2313 
L 4531 2194 
L 4453 2194 
Q 4209 2194 4119 2031 
Q 4056 1916 4056 1575 
L 4056 278 
Q 3697 84 3347 -6 
Q 2997 -97 2569 -97 
Q 1341 -97 703 691 
Q 225 1281 225 2053 
Q 225 2613 494 3125 
Q 813 3734 1369 4063 
Q 1834 4334 2469 4334 
Q 2700 4334 2889 4296 
Q 3078 4259 3425 4131 
Q 3600 4066 3659 4066 
Q 3719 4066 3761 4120 
Q 3803 4175 3813 4334 
L 3928 4334 
z
" transform="scale(0.015625)"/>
       <path id="TimesNewRomanPSMT-65" d="M 681 1784 
Q 678 1147 991 784 
Q 1303 422 1725 422 
Q 2006 422 2214 576 
Q 2422 731 2563 1106 
L 2659 1044 
Q 2594 616 2278 264 
Q 1963 -88 1488 -88 
Q 972 -88 605 314 
Q 238 716 238 1394 
Q 238 2128 614 2539 
Q 991 2950 1559 2950 
Q 2041 2950 2350 2633 
Q 2659 2316 2659 1784 
L 681 1784 
z
M 681 1966 
L 2006 1966 
Q 1991 2241 1941 2353 
Q 1863 2528 1708 2628 
Q 1553 2728 1384 2728 
Q 1125 2728 920 2526 
Q 716 2325 681 1966 
z
" transform="scale(0.015625)"/>
       <path id="TimesNewRomanPSMT-6e" d="M 1034 2341 
Q 1538 2947 1994 2947 
Q 2228 2947 2397 2830 
Q 2566 2713 2666 2444 
Q 2734 2256 2734 1869 
L 2734 647 
Q 2734 375 2778 278 
Q 2813 200 2889 156 
Q 2966 113 3172 113 
L 3172 0 
L 1756 0 
L 1756 113 
L 1816 113 
Q 2016 113 2095 173 
Q 2175 234 2206 353 
Q 2219 400 2219 647 
L 2219 1819 
Q 2219 2209 2117 2386 
Q 2016 2563 1775 2563 
Q 1403 2563 1034 2156 
L 1034 647 
Q 1034 356 1069 288 
Q 1113 197 1189 155 
Q 1266 113 1500 113 
L 1500 0 
L 84 0 
L 84 113 
L 147 113 
Q 366 113 442 223 
Q 519 334 519 647 
L 519 1709 
Q 519 2225 495 2337 
Q 472 2450 423 2490 
Q 375 2531 294 2531 
Q 206 2531 84 2484 
L 38 2597 
L 900 2947 
L 1034 2947 
L 1034 2341 
z
" transform="scale(0.015625)"/>
       <path id="TimesNewRomanPSMT-72" d="M 1038 2947 
L 1038 2303 
Q 1397 2947 1775 2947 
Q 1947 2947 2059 2842 
Q 2172 2738 2172 2600 
Q 2172 2478 2090 2393 
Q 2009 2309 1897 2309 
Q 1788 2309 1652 2417 
Q 1516 2525 1450 2525 
Q 1394 2525 1328 2463 
Q 1188 2334 1038 2041 
L 1038 669 
Q 1038 431 1097 309 
Q 1138 225 1241 169 
Q 1344 113 1538 113 
L 1538 0 
L 72 0 
L 72 113 
Q 291 113 397 181 
Q 475 231 506 341 
Q 522 394 522 644 
L 522 1753 
Q 522 2253 501 2348 
Q 481 2444 426 2487 
Q 372 2531 291 2531 
Q 194 2531 72 2484 
L 41 2597 
L 906 2947 
L 1038 2947 
z
" transform="scale(0.015625)"/>
       <path id="TimesNewRomanPSMT-61" d="M 1822 413 
Q 1381 72 1269 19 
Q 1100 -59 909 -59 
Q 613 -59 420 144 
Q 228 347 228 678 
Q 228 888 322 1041 
Q 450 1253 767 1440 
Q 1084 1628 1822 1897 
L 1822 2009 
Q 1822 2438 1686 2597 
Q 1550 2756 1291 2756 
Q 1094 2756 978 2650 
Q 859 2544 859 2406 
L 866 2225 
Q 866 2081 792 2003 
Q 719 1925 600 1925 
Q 484 1925 411 2006 
Q 338 2088 338 2228 
Q 338 2497 613 2722 
Q 888 2947 1384 2947 
Q 1766 2947 2009 2819 
Q 2194 2722 2281 2516 
Q 2338 2381 2338 1966 
L 2338 994 
Q 2338 584 2353 492 
Q 2369 400 2405 369 
Q 2441 338 2488 338 
Q 2538 338 2575 359 
Q 2641 400 2828 588 
L 2828 413 
Q 2478 -56 2159 -56 
Q 2006 -56 1915 50 
Q 1825 156 1822 413 
z
M 1822 616 
L 1822 1706 
Q 1350 1519 1213 1441 
Q 966 1303 859 1153 
Q 753 1003 753 825 
Q 753 600 887 451 
Q 1022 303 1197 303 
Q 1434 303 1822 616 
z
" transform="scale(0.015625)"/>
       <path id="TimesNewRomanPSMT-74" d="M 1031 3803 
L 1031 2863 
L 1700 2863 
L 1700 2644 
L 1031 2644 
L 1031 788 
Q 1031 509 1111 412 
Q 1191 316 1316 316 
Q 1419 316 1516 380 
Q 1613 444 1666 569 
L 1788 569 
Q 1678 263 1478 108 
Q 1278 -47 1066 -47 
Q 922 -47 784 33 
Q 647 113 581 261 
Q 516 409 516 719 
L 516 2644 
L 63 2644 
L 63 2747 
Q 234 2816 414 2980 
Q 594 3144 734 3369 
Q 806 3488 934 3803 
L 1031 3803 
z
" transform="scale(0.015625)"/>
       <path id="TimesNewRomanPSMT-69" d="M 928 4444 
Q 1059 4444 1151 4351 
Q 1244 4259 1244 4128 
Q 1244 3997 1151 3903 
Q 1059 3809 928 3809 
Q 797 3809 703 3903 
Q 609 3997 609 4128 
Q 609 4259 701 4351 
Q 794 4444 928 4444 
z
M 1188 2947 
L 1188 647 
Q 1188 378 1227 289 
Q 1266 200 1342 156 
Q 1419 113 1622 113 
L 1622 0 
L 231 0 
L 231 113 
Q 441 113 512 153 
Q 584 194 626 287 
Q 669 381 669 647 
L 669 1750 
Q 669 2216 641 2353 
Q 619 2453 572 2492 
Q 525 2531 444 2531 
Q 356 2531 231 2484 
L 188 2597 
L 1050 2947 
L 1188 2947 
z
" transform="scale(0.015625)"/>
       <path id="TimesNewRomanPSMT-6f" d="M 1600 2947 
Q 2250 2947 2644 2453 
Q 2978 2031 2978 1484 
Q 2978 1100 2793 706 
Q 2609 313 2286 112 
Q 1963 -88 1566 -88 
Q 919 -88 538 428 
Q 216 863 216 1403 
Q 216 1797 411 2186 
Q 606 2575 925 2761 
Q 1244 2947 1600 2947 
z
M 1503 2744 
Q 1338 2744 1170 2645 
Q 1003 2547 900 2300 
Q 797 2053 797 1666 
Q 797 1041 1045 587 
Q 1294 134 1700 134 
Q 2003 134 2200 384 
Q 2397 634 2397 1244 
Q 2397 2006 2069 2444 
Q 1847 2744 1503 2744 
z
" transform="scale(0.015625)"/>
      </defs>
      <use xlink:href="#TimesNewRomanPSMT-47"/>
      <use xlink:href="#TimesNewRomanPSMT-65" x="72.216797"/>
      <use xlink:href="#TimesNewRomanPSMT-6e" x="116.601562"/>
      <use xlink:href="#TimesNewRomanPSMT-65" x="166.601562"/>
      <use xlink:href="#TimesNewRomanPSMT-72" x="210.986328"/>
      <use xlink:href="#TimesNewRomanPSMT-61" x="244.287109"/>
      <use xlink:href="#TimesNewRomanPSMT-74" x="288.671875"/>
      <use xlink:href="#TimesNewRomanPSMT-69" x="316.455078"/>
      <use xlink:href="#TimesNewRomanPSMT-6f" x="344.238281"/>
      <use xlink:href="#TimesNewRomanPSMT-6e" x="394.238281"/>
     </g>
    </g>
   </g>
   <g id="matplotlib.axis_2">
    <g id="ytick_1">
     <g id="line2d_15">
      <path d="M 57.634688 453.973378 
L 727.234688 453.973378 
" clip-path="url(#pd0ce633ada)" style="fill: none; stroke-dasharray: 1.85,0.8; stroke-dashoffset: 0; stroke: #b0b0b0; stroke-width: 0.5"/>
     </g>
     <g id="line2d_16">
      <defs>
       <path id="m8f75fd1820" d="M 0 0 
L -3.5 0 
" style="stroke: #000000; stroke-width: 0.8"/>
      </defs>
      <g>
       <use xlink:href="#m8f75fd1820" x="57.634688" y="453.973378" style="stroke: #000000; stroke-width: 0.8"/>
      </g>
     </g>
     <g id="text_9">
      <!-- 0.00 -->
      <g transform="translate(23.915938 458.532441) scale(0.12 -0.12)">
       <defs>
        <path id="DejaVuSans-2e" d="M 684 794 
L 1344 794 
L 1344 0 
L 684 0 
L 684 794 
z
" transform="scale(0.015625)"/>
       </defs>
       <use xlink:href="#DejaVuSans-30"/>
       <use xlink:href="#DejaVuSans-2e" x="63.623047"/>
       <use xlink:href="#DejaVuSans-30" x="95.410156"/>
       <use xlink:href="#DejaVuSans-30" x="159.033203"/>
      </g>
     </g>
    </g>
    <g id="ytick_2">
     <g id="line2d_17">
      <path d="M 57.634688 399.936784 
L 727.234688 399.936784 
" clip-path="url(#pd0ce633ada)" style="fill: none; stroke-dasharray: 1.85,0.8; stroke-dashoffset: 0; stroke: #b0b0b0; stroke-width: 0.5"/>
     </g>
     <g id="line2d_18">
      <g>
       <use xlink:href="#m8f75fd1820" x="57.634688" y="399.936784" style="stroke: #000000; stroke-width: 0.8"/>
      </g>
     </g>
     <g id="text_10">
      <!-- 0.02 -->
      <g transform="translate(23.915938 404.495846) scale(0.12 -0.12)">
       <use xlink:href="#DejaVuSans-30"/>
       <use xlink:href="#DejaVuSans-2e" x="63.623047"/>
       <use xlink:href="#DejaVuSans-30" x="95.410156"/>
       <use xlink:href="#DejaVuSans-32" x="159.033203"/>
      </g>
     </g>
    </g>
    <g id="ytick_3">
     <g id="line2d_19">
      <path d="M 57.634688 345.900189 
L 727.234688 345.900189 
" clip-path="url(#pd0ce633ada)" style="fill: none; stroke-dasharray: 1.85,0.8; stroke-dashoffset: 0; stroke: #b0b0b0; stroke-width: 0.5"/>
     </g>
     <g id="line2d_20">
      <g>
       <use xlink:href="#m8f75fd1820" x="57.634688" y="345.900189" style="stroke: #000000; stroke-width: 0.8"/>
      </g>
     </g>
     <g id="text_11">
      <!-- 0.04 -->
      <g transform="translate(23.915938 350.459252) scale(0.12 -0.12)">
       <defs>
        <path id="DejaVuSans-34" d="M 2419 4116 
L 825 1625 
L 2419 1625 
L 2419 4116 
z
M 2253 4666 
L 3047 4666 
L 3047 1625 
L 3713 1625 
L 3713 1100 
L 3047 1100 
L 3047 0 
L 2419 0 
L 2419 1100 
L 313 1100 
L 313 1709 
L 2253 4666 
z
" transform="scale(0.015625)"/>
       </defs>
       <use xlink:href="#DejaVuSans-30"/>
       <use xlink:href="#DejaVuSans-2e" x="63.623047"/>
       <use xlink:href="#DejaVuSans-30" x="95.410156"/>
       <use xlink:href="#DejaVuSans-34" x="159.033203"/>
      </g>
     </g>
    </g>
    <g id="ytick_4">
     <g id="line2d_21">
      <path d="M 57.634688 291.863595 
L 727.234688 291.863595 
" clip-path="url(#pd0ce633ada)" style="fill: none; stroke-dasharray: 1.85,0.8; stroke-dashoffset: 0; stroke: #b0b0b0; stroke-width: 0.5"/>
     </g>
     <g id="line2d_22">
      <g>
       <use xlink:href="#m8f75fd1820" x="57.634688" y="291.863595" style="stroke: #000000; stroke-width: 0.8"/>
      </g>
     </g>
     <g id="text_12">
      <!-- 0.06 -->
      <g transform="translate(23.915938 296.422657) scale(0.12 -0.12)">
       <defs>
        <path id="DejaVuSans-36" d="M 2113 2584 
Q 1688 2584 1439 2293 
Q 1191 2003 1191 1497 
Q 1191 994 1439 701 
Q 1688 409 2113 409 
Q 2538 409 2786 701 
Q 3034 994 3034 1497 
Q 3034 2003 2786 2293 
Q 2538 2584 2113 2584 
z
M 3366 4563 
L 3366 3988 
Q 3128 4100 2886 4159 
Q 2644 4219 2406 4219 
Q 1781 4219 1451 3797 
Q 1122 3375 1075 2522 
Q 1259 2794 1537 2939 
Q 1816 3084 2150 3084 
Q 2853 3084 3261 2657 
Q 3669 2231 3669 1497 
Q 3669 778 3244 343 
Q 2819 -91 2113 -91 
Q 1303 -91 875 529 
Q 447 1150 447 2328 
Q 447 3434 972 4092 
Q 1497 4750 2381 4750 
Q 2619 4750 2861 4703 
Q 3103 4656 3366 4563 
z
" transform="scale(0.015625)"/>
       </defs>
       <use xlink:href="#DejaVuSans-30"/>
       <use xlink:href="#DejaVuSans-2e" x="63.623047"/>
       <use xlink:href="#DejaVuSans-30" x="95.410156"/>
       <use xlink:href="#DejaVuSans-36" x="159.033203"/>
      </g>
     </g>
    </g>
    <g id="ytick_5">
     <g id="line2d_23">
      <path d="M 57.634688 237.827 
L 727.234688 237.827 
" clip-path="url(#pd0ce633ada)" style="fill: none; stroke-dasharray: 1.85,0.8; stroke-dashoffset: 0; stroke: #b0b0b0; stroke-width: 0.5"/>
     </g>
     <g id="line2d_24">
      <g>
       <use xlink:href="#m8f75fd1820" x="57.634688" y="237.827" style="stroke: #000000; stroke-width: 0.8"/>
      </g>
     </g>
     <g id="text_13">
      <!-- 0.08 -->
      <g transform="translate(23.915938 242.386062) scale(0.12 -0.12)">
       <defs>
        <path id="DejaVuSans-38" d="M 2034 2216 
Q 1584 2216 1326 1975 
Q 1069 1734 1069 1313 
Q 1069 891 1326 650 
Q 1584 409 2034 409 
Q 2484 409 2743 651 
Q 3003 894 3003 1313 
Q 3003 1734 2745 1975 
Q 2488 2216 2034 2216 
z
M 1403 2484 
Q 997 2584 770 2862 
Q 544 3141 544 3541 
Q 544 4100 942 4425 
Q 1341 4750 2034 4750 
Q 2731 4750 3128 4425 
Q 3525 4100 3525 3541 
Q 3525 3141 3298 2862 
Q 3072 2584 2669 2484 
Q 3125 2378 3379 2068 
Q 3634 1759 3634 1313 
Q 3634 634 3220 271 
Q 2806 -91 2034 -91 
Q 1263 -91 848 271 
Q 434 634 434 1313 
Q 434 1759 690 2068 
Q 947 2378 1403 2484 
z
M 1172 3481 
Q 1172 3119 1398 2916 
Q 1625 2713 2034 2713 
Q 2441 2713 2670 2916 
Q 2900 3119 2900 3481 
Q 2900 3844 2670 4047 
Q 2441 4250 2034 4250 
Q 1625 4250 1398 4047 
Q 1172 3844 1172 3481 
z
" transform="scale(0.015625)"/>
       </defs>
       <use xlink:href="#DejaVuSans-30"/>
       <use xlink:href="#DejaVuSans-2e" x="63.623047"/>
       <use xlink:href="#DejaVuSans-30" x="95.410156"/>
       <use xlink:href="#DejaVuSans-38" x="159.033203"/>
      </g>
     </g>
    </g>
    <g id="ytick_6">
     <g id="line2d_25">
      <path d="M 57.634688 183.790405 
L 727.234688 183.790405 
" clip-path="url(#pd0ce633ada)" style="fill: none; stroke-dasharray: 1.85,0.8; stroke-dashoffset: 0; stroke: #b0b0b0; stroke-width: 0.5"/>
     </g>
     <g id="line2d_26">
      <g>
       <use xlink:href="#m8f75fd1820" x="57.634688" y="183.790405" style="stroke: #000000; stroke-width: 0.8"/>
      </g>
     </g>
     <g id="text_14">
      <!-- 0.10 -->
      <g transform="translate(23.915938 188.349468) scale(0.12 -0.12)">
       <use xlink:href="#DejaVuSans-30"/>
       <use xlink:href="#DejaVuSans-2e" x="63.623047"/>
       <use xlink:href="#DejaVuSans-31" x="95.410156"/>
       <use xlink:href="#DejaVuSans-30" x="159.033203"/>
      </g>
     </g>
    </g>
    <g id="ytick_7">
     <g id="line2d_27">
      <path d="M 57.634688 129.753811 
L 727.234688 129.753811 
" clip-path="url(#pd0ce633ada)" style="fill: none; stroke-dasharray: 1.85,0.8; stroke-dashoffset: 0; stroke: #b0b0b0; stroke-width: 0.5"/>
     </g>
     <g id="line2d_28">
      <g>
       <use xlink:href="#m8f75fd1820" x="57.634688" y="129.753811" style="stroke: #000000; stroke-width: 0.8"/>
      </g>
     </g>
     <g id="text_15">
      <!-- 0.12 -->
      <g transform="translate(23.915938 134.312873) scale(0.12 -0.12)">
       <use xlink:href="#DejaVuSans-30"/>
       <use xlink:href="#DejaVuSans-2e" x="63.623047"/>
       <use xlink:href="#DejaVuSans-31" x="95.410156"/>
       <use xlink:href="#DejaVuSans-32" x="159.033203"/>
      </g>
     </g>
    </g>
    <g id="ytick_8">
     <g id="line2d_29">
      <path d="M 57.634688 75.717216 
L 727.234688 75.717216 
" clip-path="url(#pd0ce633ada)" style="fill: none; stroke-dasharray: 1.85,0.8; stroke-dashoffset: 0; stroke: #b0b0b0; stroke-width: 0.5"/>
     </g>
     <g id="line2d_30">
      <g>
       <use xlink:href="#m8f75fd1820" x="57.634688" y="75.717216" style="stroke: #000000; stroke-width: 0.8"/>
      </g>
     </g>
     <g id="text_16">
      <!-- 0.14 -->
      <g transform="translate(23.915938 80.276278) scale(0.12 -0.12)">
       <use xlink:href="#DejaVuSans-30"/>
       <use xlink:href="#DejaVuSans-2e" x="63.623047"/>
       <use xlink:href="#DejaVuSans-31" x="95.410156"/>
       <use xlink:href="#DejaVuSans-34" x="159.033203"/>
      </g>
     </g>
    </g>
    <g id="text_17">
     <!-- Average Error -->
     <g transform="translate(16.895 284.159062) rotate(-90) scale(0.14 -0.14)">
      <defs>
       <path id="TimesNewRomanPSMT-41" d="M 2928 1419 
L 1288 1419 
L 1000 750 
Q 894 503 894 381 
Q 894 284 986 211 
Q 1078 138 1384 116 
L 1384 0 
L 50 0 
L 50 116 
Q 316 163 394 238 
Q 553 388 747 847 
L 2238 4334 
L 2347 4334 
L 3822 809 
Q 4000 384 4145 257 
Q 4291 131 4550 116 
L 4550 0 
L 2878 0 
L 2878 116 
Q 3131 128 3220 200 
Q 3309 272 3309 375 
Q 3309 513 3184 809 
L 2928 1419 
z
M 2841 1650 
L 2122 3363 
L 1384 1650 
L 2841 1650 
z
" transform="scale(0.015625)"/>
       <path id="TimesNewRomanPSMT-76" d="M 53 2863 
L 1400 2863 
L 1400 2747 
L 1313 2747 
Q 1191 2747 1127 2687 
Q 1063 2628 1063 2528 
Q 1063 2419 1128 2269 
L 1794 688 
L 2463 2328 
Q 2534 2503 2534 2594 
Q 2534 2638 2509 2666 
Q 2475 2713 2422 2730 
Q 2369 2747 2206 2747 
L 2206 2863 
L 3141 2863 
L 3141 2747 
Q 2978 2734 2916 2681 
Q 2806 2588 2719 2369 
L 1703 -88 
L 1575 -88 
L 553 2328 
Q 484 2497 421 2570 
Q 359 2644 263 2694 
Q 209 2722 53 2747 
L 53 2863 
z
" transform="scale(0.015625)"/>
       <path id="TimesNewRomanPSMT-67" d="M 966 1044 
Q 703 1172 562 1401 
Q 422 1631 422 1909 
Q 422 2334 742 2640 
Q 1063 2947 1563 2947 
Q 1972 2947 2272 2747 
L 2878 2747 
Q 3013 2747 3034 2739 
Q 3056 2731 3066 2713 
Q 3084 2684 3084 2613 
Q 3084 2531 3069 2500 
Q 3059 2484 3036 2475 
Q 3013 2466 2878 2466 
L 2506 2466 
Q 2681 2241 2681 1891 
Q 2681 1491 2375 1206 
Q 2069 922 1553 922 
Q 1341 922 1119 984 
Q 981 866 932 777 
Q 884 688 884 625 
Q 884 572 936 522 
Q 988 472 1138 450 
Q 1225 438 1575 428 
Q 2219 413 2409 384 
Q 2700 344 2873 169 
Q 3047 -6 3047 -263 
Q 3047 -616 2716 -925 
Q 2228 -1381 1444 -1381 
Q 841 -1381 425 -1109 
Q 191 -953 191 -784 
Q 191 -709 225 -634 
Q 278 -519 444 -313 
Q 466 -284 763 25 
Q 600 122 533 198 
Q 466 275 466 372 
Q 466 481 555 628 
Q 644 775 966 1044 
z
M 1509 2797 
Q 1278 2797 1122 2612 
Q 966 2428 966 2047 
Q 966 1553 1178 1281 
Q 1341 1075 1591 1075 
Q 1828 1075 1981 1253 
Q 2134 1431 2134 1813 
Q 2134 2309 1919 2591 
Q 1759 2797 1509 2797 
z
M 934 0 
Q 788 -159 713 -296 
Q 638 -434 638 -550 
Q 638 -700 819 -813 
Q 1131 -1006 1722 -1006 
Q 2284 -1006 2551 -807 
Q 2819 -609 2819 -384 
Q 2819 -222 2659 -153 
Q 2497 -84 2016 -72 
Q 1313 -53 934 0 
z
" transform="scale(0.015625)"/>
       <path id="TimesNewRomanPSMT-20" transform="scale(0.015625)"/>
       <path id="TimesNewRomanPSMT-45" d="M 1338 4006 
L 1338 2331 
L 2269 2331 
Q 2631 2331 2753 2441 
Q 2916 2584 2934 2947 
L 3050 2947 
L 3050 1472 
L 2934 1472 
Q 2891 1781 2847 1869 
Q 2791 1978 2662 2040 
Q 2534 2103 2269 2103 
L 1338 2103 
L 1338 706 
Q 1338 425 1363 364 
Q 1388 303 1450 267 
Q 1513 231 1688 231 
L 2406 231 
Q 2766 231 2928 281 
Q 3091 331 3241 478 
Q 3434 672 3638 1063 
L 3763 1063 
L 3397 0 
L 131 0 
L 131 116 
L 281 116 
Q 431 116 566 188 
Q 666 238 702 338 
Q 738 438 738 747 
L 738 3500 
Q 738 3903 656 3997 
Q 544 4122 281 4122 
L 131 4122 
L 131 4238 
L 3397 4238 
L 3444 3309 
L 3322 3309 
Q 3256 3644 3176 3769 
Q 3097 3894 2941 3959 
Q 2816 4006 2500 4006 
L 1338 4006 
z
" transform="scale(0.015625)"/>
      </defs>
      <use xlink:href="#TimesNewRomanPSMT-41"/>
      <use xlink:href="#TimesNewRomanPSMT-76" x="64.841797"/>
      <use xlink:href="#TimesNewRomanPSMT-65" x="114.841797"/>
      <use xlink:href="#TimesNewRomanPSMT-72" x="159.226562"/>
      <use xlink:href="#TimesNewRomanPSMT-61" x="192.527344"/>
      <use xlink:href="#TimesNewRomanPSMT-67" x="236.912109"/>
      <use xlink:href="#TimesNewRomanPSMT-65" x="286.912109"/>
      <use xlink:href="#TimesNewRomanPSMT-20" x="331.296875"/>
      <use xlink:href="#TimesNewRomanPSMT-45" x="356.296875"/>
      <use xlink:href="#TimesNewRomanPSMT-72" x="417.380859"/>
      <use xlink:href="#TimesNewRomanPSMT-72" x="450.681641"/>
      <use xlink:href="#TimesNewRomanPSMT-6f" x="483.982422"/>
      <use xlink:href="#TimesNewRomanPSMT-72" x="533.982422"/>
     </g>
    </g>
   </g>
   <g id="line2d_31">
    <path d="M 88.071051 315.186349 
L 109.061647 373.228703 
L 130.052242 375.041068 
L 151.042838 404.036664 
L 172.033434 302.778154 
L 193.024029 376.699965 
L 214.014625 334.141089 
L 235.00522 408.375823 
L 255.995816 388.197347 
L 276.986412 409.569722 
L 297.977007 386.994377 
L 318.967603 382.564997 
L 339.958198 397.984381 
L 360.948794 399.289401 
L 381.93939 312.595542 
L 402.929985 421.868938 
L 423.920581 405.856996 
L 444.911177 305.56533 
L 465.901772 429.176622 
L 486.892368 412.876544 
L 507.882963 417.163604 
L 528.873559 404.635169 
L 549.864155 407.110729 
L 570.85475 388.017659 
L 591.845346 419.20255 
L 612.835941 347.518498 
L 633.826537 440.678676 
L 654.817133 425.098297 
L 675.807728 360.785775 
L 696.798324 445.131702 
" clip-path="url(#pd0ce633ada)" style="fill: none; stroke: #a1c9f4; stroke-width: 1.5; stroke-linecap: square"/>
   </g>
   <g id="line2d_32">
    <path d="M 88.071051 344.116964 
L 109.061647 358.727417 
L 130.052242 356.375359 
L 151.042838 365.987514 
L 172.033434 377.202151 
L 193.024029 385.141203 
L 214.014625 385.499417 
L 235.00522 397.329523 
L 255.995816 403.544126 
L 276.986412 390.272396 
L 297.977007 379.736537 
L 318.967603 402.065073 
L 339.958198 406.032753 
L 360.948794 407.031687 
L 381.93939 380.596507 
L 402.929985 384.41831 
L 423.920581 383.025667 
L 444.911177 386.042884 
L 465.901772 399.937811 
L 486.892368 411.75861 
L 507.882963 401.667786 
L 528.873559 402.017704 
L 549.864155 405.672415 
L 570.85475 405.901782 
L 591.845346 410.397688 
L 612.835941 410.794621 
L 633.826537 409.026937 
L 654.817133 408.630827 
L 675.807728 406.353902 
L 696.798324 397.407922 
" clip-path="url(#pd0ce633ada)" style="fill: none; stroke-dasharray: 6,2.25; stroke-dashoffset: 0; stroke: #a1c9f4; stroke-width: 1.5"/>
   </g>
   <g id="line2d_33">
    <path d="M 88.071051 340.979066 
L 109.061647 383.268454 
L 130.052242 385.936995 
L 151.042838 409.50645 
L 172.033434 324.098197 
L 193.024029 386.306844 
L 214.014625 362.05387 
L 235.00522 416.562378 
L 255.995816 395.16782 
L 276.986412 416.953893 
L 297.977007 393.708115 
L 318.967603 391.588789 
L 339.958198 404.175209 
L 360.948794 406.104547 
L 381.93939 329.343187 
L 402.929985 426.211675 
L 423.920581 411.338169 
L 444.911177 329.404996 
L 465.901772 431.405122 
L 486.892368 416.39563 
L 507.882963 420.134786 
L 528.873559 410.79846 
L 549.864155 414.549464 
L 570.85475 397.75353 
L 591.845346 426.392545 
L 612.835941 366.732873 
L 633.826537 442.860541 
L 654.817133 429.504393 
L 675.807728 372.36998 
L 696.798324 446.049375 
" clip-path="url(#pd0ce633ada)" style="fill: none; stroke: #ffb482; stroke-width: 1.5; stroke-linecap: square"/>
   </g>
   <g id="line2d_34">
    <path d="M 88.071051 364.142266 
L 109.061647 374.077895 
L 130.052242 371.401747 
L 151.042838 380.378226 
L 172.033434 388.339618 
L 193.024029 395.444886 
L 214.014625 396.456466 
L 235.00522 405.46681 
L 255.995816 409.934421 
L 276.986412 398.770772 
L 297.977007 391.242985 
L 318.967603 408.141839 
L 339.958198 412.012004 
L 360.948794 412.857801 
L 381.93939 391.902728 
L 402.929985 395.779666 
L 423.920581 394.006267 
L 444.911177 395.89089 
L 465.901772 406.53811 
L 486.892368 416.537866 
L 507.882963 409.038333 
L 528.873559 410.22269 
L 549.864155 412.630384 
L 570.85475 412.567447 
L 591.845346 416.988452 
L 612.835941 416.992536 
L 633.826537 416.159645 
L 654.817133 414.57674 
L 675.807728 413.100255 
L 696.798324 405.66663 
" clip-path="url(#pd0ce633ada)" style="fill: none; stroke-dasharray: 6,2.25; stroke-dashoffset: 0; stroke: #ffb482; stroke-width: 1.5"/>
   </g>
   <g id="line2d_35">
    <path d="M 88.071051 359.426741 
L 109.061647 398.216281 
L 130.052242 403.640759 
L 151.042838 414.562472 
L 172.033434 335.686877 
L 193.024029 398.304665 
L 214.014625 388.827487 
L 235.00522 418.72936 
L 255.995816 408.187835 
L 276.986412 416.700073 
L 297.977007 404.413021 
L 318.967603 402.508476 
L 339.958198 414.934601 
L 360.948794 413.139806 
L 381.93939 355.485394 
L 402.929985 423.437834 
L 423.920581 422.913923 
L 444.911177 360.320698 
L 465.901772 436.007061 
L 486.892368 422.140761 
L 507.882963 426.394505 
L 528.873559 424.250812 
L 549.864155 415.904746 
L 570.85475 404.025781 
L 591.845346 432.850183 
L 612.835941 389.240973 
L 633.826537 442.830417 
L 654.817133 430.023762 
L 675.807728 389.249259 
L 696.798324 444.91486 
" clip-path="url(#pd0ce633ada)" style="fill: none; stroke: #8de5a1; stroke-width: 1.5; stroke-linecap: square"/>
   </g>
   <g id="line2d_36">
    <path d="M 88.071051 380.063373 
L 109.061647 387.384636 
L 130.052242 385.268243 
L 151.042838 391.890264 
L 172.033434 400.087894 
L 193.024029 405.703571 
L 214.014625 406.759368 
L 235.00522 413.436592 
L 255.995816 414.802873 
L 276.986412 407.282099 
L 297.977007 402.693586 
L 318.967603 415.953553 
L 339.958198 419.228771 
L 360.948794 420.11559 
L 381.93939 402.050527 
L 402.929985 405.169809 
L 423.920581 404.792356 
L 444.911177 404.852965 
L 465.901772 412.165324 
L 486.892368 421.074144 
L 507.882963 413.91794 
L 528.873559 415.689027 
L 549.864155 415.692158 
L 570.85475 418.706978 
L 591.845346 421.534611 
L 612.835941 422.468935 
L 633.826537 422.202141 
L 654.817133 422.661926 
L 675.807728 417.147536 
L 696.798324 410.354062 
" clip-path="url(#pd0ce633ada)" style="fill: none; stroke-dasharray: 6,2.25; stroke-dashoffset: 0; stroke: #8de5a1; stroke-width: 1.5"/>
   </g>
   <g id="line2d_37">
    <path d="M 88.071051 92.063502 
L 109.061647 282.28629 
L 130.052242 257.873183 
L 151.042838 318.01681 
L 172.033434 216.19601 
L 193.024029 129.330487 
L 214.014625 209.596726 
L 235.00522 364.186526 
L 255.995816 187.590724 
L 276.986412 379.370263 
L 297.977007 212.954169 
L 318.967603 246.549339 
L 339.958198 123.564671 
L 360.948794 240.928914 
L 381.93939 180.271262 
L 402.929985 336.072878 
L 423.920581 267.546422 
L 444.911177 42.849375 
L 465.901772 339.222662 
L 486.892368 295.087358 
L 507.882963 310.962328 
L 528.873559 287.742963 
L 549.864155 308.601634 
L 570.85475 238.410036 
L 591.845346 332.092194 
L 612.835941 62.606888 
L 633.826537 326.115706 
L 654.817133 249.178716 
L 675.807728 287.708952 
L 696.798324 359.638197 
" clip-path="url(#pd0ce633ada)" style="fill: none; stroke: #ff9f9b; stroke-width: 1.5; stroke-linecap: square"/>
   </g>
   <g id="line2d_38">
    <path d="M 88.071051 174.914065 
L 109.061647 221.611312 
L 130.052242 201.432871 
L 151.042838 236.181864 
L 172.033434 231.757452 
L 193.024029 236.830557 
L 214.014625 229.455884 
L 235.00522 251.252767 
L 255.995816 269.556613 
L 276.986412 262.901682 
L 297.977007 223.969614 
L 318.967603 242.940882 
L 339.958198 280.115414 
L 360.948794 292.669389 
L 381.93939 255.659858 
L 402.929985 255.294963 
L 423.920581 241.753168 
L 444.911177 257.269293 
L 465.901772 272.435107 
L 486.892368 283.59168 
L 507.882963 269.657586 
L 528.873559 286.788254 
L 549.864155 289.318681 
L 570.85475 282.045435 
L 591.845346 288.550359 
L 612.835941 287.531662 
L 633.826537 282.755701 
L 654.817133 271.810049 
L 675.807728 301.797047 
L 696.798324 289.279453 
" clip-path="url(#pd0ce633ada)" style="fill: none; stroke-dasharray: 6,2.25; stroke-dashoffset: 0; stroke: #ff9f9b; stroke-width: 1.5"/>
   </g>
   <g id="line2d_39">
    <path d="M 88.071051 92.063502 
L 109.061647 282.28629 
L 130.052242 257.873183 
L 151.042838 318.01681 
L 172.033434 216.19601 
L 193.024029 129.330487 
L 214.014625 209.596726 
L 235.00522 364.186526 
L 255.995816 187.590724 
L 276.986412 379.370263 
L 297.977007 212.954169 
L 318.967603 246.549339 
L 339.958198 123.564671 
L 360.948794 240.928914 
L 381.93939 180.271262 
L 402.929985 336.072878 
L 423.920581 267.546422 
L 444.911177 42.849375 
L 465.901772 339.222662 
L 486.892368 295.087358 
L 507.882963 310.962328 
L 528.873559 287.742963 
L 549.864155 308.601634 
L 570.85475 238.410036 
L 591.845346 332.092194 
L 612.835941 62.606888 
L 633.826537 326.115706 
L 654.817133 249.178716 
L 675.807728 287.708952 
L 696.798324 359.638197 
" clip-path="url(#pd0ce633ada)" style="fill: none; stroke: #d0bbff; stroke-width: 1.5; stroke-linecap: square"/>
   </g>
   <g id="line2d_40">
    <path d="M 88.071051 174.914065 
L 109.061647 221.611312 
L 130.052242 201.432871 
L 151.042838 236.181864 
L 172.033434 231.757452 
L 193.024029 236.830557 
L 214.014625 229.455884 
L 235.00522 251.252767 
L 255.995816 269.556613 
L 276.986412 262.901682 
L 297.977007 223.969614 
L 318.967603 242.940882 
L 339.958198 280.115414 
L 360.948794 292.669389 
L 381.93939 255.659858 
L 402.929985 255.294963 
L 423.920581 241.753168 
L 444.911177 257.269293 
L 465.901772 272.435107 
L 486.892368 283.59168 
L 507.882963 269.657586 
L 528.873559 286.788254 
L 549.864155 289.318681 
L 570.85475 282.045435 
L 591.845346 288.550359 
L 612.835941 287.531662 
L 633.826537 282.755701 
L 654.817133 271.810049 
L 675.807728 301.797047 
L 696.798324 289.279453 
" clip-path="url(#pd0ce633ada)" style="fill: none; stroke-dasharray: 6,2.25; stroke-dashoffset: 0; stroke: #d0bbff; stroke-width: 1.5"/>
   </g>
   <g id="line2d_41">
    <path d="M 88.071051 359.426741 
L 109.061647 398.216281 
L 130.052242 403.640759 
L 151.042838 414.562472 
L 172.033434 335.686877 
L 193.024029 398.304665 
L 214.014625 388.827487 
L 235.00522 418.72936 
L 255.995816 408.187835 
L 276.986412 416.700073 
L 297.977007 404.413021 
L 318.967603 402.508476 
L 339.958198 414.934601 
L 360.948794 413.139806 
L 381.93939 355.485394 
L 402.929985 423.437834 
L 423.920581 422.913923 
L 444.911177 360.320698 
L 465.901772 436.007061 
L 486.892368 422.140761 
L 507.882963 426.394505 
L 528.873559 424.250812 
L 549.864155 415.904746 
L 570.85475 404.025781 
L 591.845346 432.850183 
L 612.835941 389.240973 
L 633.826537 442.830417 
L 654.817133 430.023762 
L 675.807728 389.249259 
L 696.798324 444.91486 
" clip-path="url(#pd0ce633ada)" style="fill: none; stroke: #debb9b; stroke-width: 1.5; stroke-linecap: square"/>
   </g>
   <g id="line2d_42">
    <path d="M 88.071051 380.063373 
L 109.061647 387.384636 
L 130.052242 385.268243 
L 151.042838 391.890264 
L 172.033434 400.087894 
L 193.024029 405.703571 
L 214.014625 406.759368 
L 235.00522 413.436592 
L 255.995816 414.802873 
L 276.986412 407.282099 
L 297.977007 402.693586 
L 318.967603 415.953553 
L 339.958198 419.228771 
L 360.948794 420.11559 
L 381.93939 402.050527 
L 402.929985 405.169809 
L 423.920581 404.792356 
L 444.911177 404.852965 
L 465.901772 412.165324 
L 486.892368 421.074144 
L 507.882963 413.91794 
L 528.873559 415.689027 
L 549.864155 415.692158 
L 570.85475 418.706978 
L 591.845346 421.534611 
L 612.835941 422.468935 
L 633.826537 422.202141 
L 654.817133 422.661926 
L 675.807728 417.147536 
L 696.798324 410.354062 
" clip-path="url(#pd0ce633ada)" style="fill: none; stroke-dasharray: 6,2.25; stroke-dashoffset: 0; stroke: #debb9b; stroke-width: 1.5"/>
   </g>
   <g id="line2d_43">
    <path d="M 88.071051 436.702922 
L 109.061647 439.725507 
L 130.052242 434.006916 
L 151.042838 444.184352 
L 172.033434 428.329431 
L 193.024029 435.443989 
L 214.014625 435.32187 
L 235.00522 436.11215 
L 255.995816 440.509307 
L 276.986412 439.644323 
L 297.977007 443.454604 
L 318.967603 435.018983 
L 339.958198 437.902365 
L 360.948794 436.196317 
L 381.93939 439.296119 
L 402.929985 434.681728 
L 423.920581 437.522361 
L 444.911177 433.07512 
L 465.901772 436.807914 
L 486.892368 437.970304 
L 507.882963 439.90753 
L 528.873559 438.016991 
L 549.864155 434.150474 
L 570.85475 434.752193 
L 591.845346 428.390591 
L 612.835941 428.32719 
L 633.826537 433.46323 
L 654.817133 431.822282 
L 675.807728 440.90865 
L 696.798324 441.312661 
" clip-path="url(#pd0ce633ada)" style="fill: none; stroke: #fab0e4; stroke-width: 1.5; stroke-linecap: square"/>
   </g>
   <g id="line2d_44">
    <path d="M 88.071051 432.760041 
L 109.061647 433.893651 
L 130.052242 435.030932 
L 151.042838 435.816112 
L 172.033434 436.329308 
L 193.024029 435.903413 
L 214.014625 436.643892 
L 235.00522 437.2634 
L 255.995816 437.766904 
L 276.986412 437.877019 
L 297.977007 437.937585 
L 318.967603 437.936614 
L 339.958198 437.262344 
L 360.948794 436.336449 
L 381.93939 435.694556 
L 402.929985 435.665166 
L 423.920581 435.945381 
L 444.911177 435.846643 
L 465.901772 436.108251 
L 486.892368 436.439898 
L 507.882963 435.630847 
L 528.873559 435.188859 
L 549.864155 434.355254 
L 570.85475 434.495396 
L 591.845346 434.491223 
L 612.835941 434.288189 
L 633.826537 434.437938 
L 654.817133 435.100503 
L 675.807728 435.308246 
L 696.798324 435.713794 
" clip-path="url(#pd0ce633ada)" style="fill: none; stroke-dasharray: 6,2.25; stroke-dashoffset: 0; stroke: #fab0e4; stroke-width: 1.5"/>
   </g>
   <g id="line2d_45"/>
   <g id="line2d_46"/>
   <g id="line2d_47"/>
   <g id="line2d_48"/>
   <g id="line2d_49"/>
   <g id="line2d_50"/>
   <g id="line2d_51"/>
   <g id="line2d_52"/>
   <g id="line2d_53"/>
   <g id="patch_3">
    <path d="M 57.634688 466.209375 
L 57.634688 22.689375 
" style="fill: none; stroke: #000000; stroke-width: 0.8; stroke-linejoin: miter; stroke-linecap: square"/>
   </g>
   <g id="patch_4">
    <path d="M 57.634688 466.209375 
L 727.234688 466.209375 
" style="fill: none; stroke: #000000; stroke-width: 0.8; stroke-linejoin: miter; stroke-linecap: square"/>
   </g>
   <g id="text_18">
    <!-- Law School Admission Bar Passage - Decision Tree -->
    <g transform="translate(240.674687 16.689375) scale(0.14 -0.14)">
     <defs>
      <path id="TimesNewRomanPS-BoldMT-4c" d="M 4041 1488 
L 3881 0 
L 119 0 
L 119 116 
L 259 116 
Q 444 116 556 181 
Q 638 225 681 331 
Q 716 406 716 725 
L 716 3513 
Q 716 3838 681 3919 
Q 647 4000 542 4061 
Q 438 4122 259 4122 
L 119 4122 
L 119 4238 
L 2378 4238 
L 2378 4122 
L 2194 4122 
Q 2009 4122 1897 4056 
Q 1816 4013 1769 3906 
Q 1734 3831 1734 3513 
L 1734 813 
Q 1734 488 1771 398 
Q 1809 309 1919 266 
Q 1997 238 2297 238 
L 2650 238 
Q 2988 238 3213 356 
Q 3438 475 3602 731 
Q 3766 988 3913 1488 
L 4041 1488 
z
" transform="scale(0.015625)"/>
      <path id="TimesNewRomanPS-BoldMT-61" d="M 1828 431 
Q 1294 -41 869 -41 
Q 619 -41 453 123 
Q 288 288 288 534 
Q 288 869 575 1136 
Q 863 1403 1828 1847 
L 1828 2141 
Q 1828 2472 1792 2558 
Q 1756 2644 1656 2708 
Q 1556 2772 1431 2772 
Q 1228 2772 1097 2681 
Q 1016 2625 1016 2550 
Q 1016 2484 1103 2388 
Q 1222 2253 1222 2128 
Q 1222 1975 1108 1867 
Q 994 1759 809 1759 
Q 613 1759 480 1878 
Q 347 1997 347 2156 
Q 347 2381 525 2586 
Q 703 2791 1022 2900 
Q 1341 3009 1684 3009 
Q 2100 3009 2342 2832 
Q 2584 2656 2656 2450 
Q 2700 2319 2700 1847 
L 2700 713 
Q 2700 513 2715 461 
Q 2731 409 2762 384 
Q 2794 359 2834 359 
Q 2916 359 3000 475 
L 3094 400 
Q 2938 169 2770 64 
Q 2603 -41 2391 -41 
Q 2141 -41 2000 76 
Q 1859 194 1828 431 
z
M 1828 659 
L 1828 1638 
Q 1450 1416 1266 1163 
Q 1144 994 1144 822 
Q 1144 678 1247 569 
Q 1325 484 1466 484 
Q 1622 484 1828 659 
z
" transform="scale(0.015625)"/>
      <path id="TimesNewRomanPS-BoldMT-77" d="M 3113 -88 
L 2313 2056 
L 1528 -88 
L 1366 -88 
L 588 2031 
Q 413 2516 291 2663 
Q 213 2763 53 2806 
L 53 2922 
L 1528 2922 
L 1528 2806 
Q 1378 2806 1322 2762 
Q 1266 2719 1266 2663 
Q 1266 2609 1366 2344 
L 1794 1203 
L 2206 2344 
L 2175 2419 
Q 2081 2653 2011 2717 
Q 1941 2781 1794 2806 
L 1794 2922 
L 3291 2922 
L 3291 2806 
Q 3116 2797 3069 2758 
Q 3022 2719 3022 2647 
Q 3022 2578 3113 2344 
L 3525 1203 
L 3900 2253 
Q 3981 2478 3981 2559 
Q 3981 2681 3922 2737 
Q 3863 2794 3691 2806 
L 3691 2922 
L 4556 2922 
L 4556 2806 
Q 4413 2788 4328 2705 
Q 4244 2622 4109 2234 
L 3291 -88 
L 3113 -88 
z
" transform="scale(0.015625)"/>
      <path id="TimesNewRomanPS-BoldMT-20" transform="scale(0.015625)"/>
      <path id="TimesNewRomanPS-BoldMT-53" d="M 3006 4334 
L 3041 2922 
L 2913 2922 
Q 2822 3453 2467 3776 
Q 2113 4100 1700 4100 
Q 1381 4100 1195 3929 
Q 1009 3759 1009 3538 
Q 1009 3397 1075 3288 
Q 1166 3141 1366 2997 
Q 1513 2894 2044 2631 
Q 2788 2266 3047 1941 
Q 3303 1616 3303 1197 
Q 3303 666 2889 283 
Q 2475 -100 1838 -100 
Q 1638 -100 1459 -59 
Q 1281 -19 1013 94 
Q 863 156 766 156 
Q 684 156 593 93 
Q 503 31 447 -97 
L 331 -97 
L 331 1503 
L 447 1503 
Q 584 828 976 473 
Q 1369 119 1822 119 
Q 2172 119 2380 309 
Q 2588 500 2588 753 
Q 2588 903 2508 1043 
Q 2428 1184 2265 1311 
Q 2103 1438 1691 1641 
Q 1113 1925 859 2125 
Q 606 2325 470 2572 
Q 334 2819 334 3116 
Q 334 3622 706 3978 
Q 1078 4334 1644 4334 
Q 1850 4334 2044 4284 
Q 2191 4247 2402 4145 
Q 2613 4044 2697 4044 
Q 2778 4044 2825 4094 
Q 2872 4144 2913 4334 
L 3006 4334 
z
" transform="scale(0.015625)"/>
      <path id="TimesNewRomanPS-BoldMT-63" d="M 2600 753 
L 2697 678 
Q 2491 291 2183 101 
Q 1875 -88 1528 -88 
Q 944 -88 594 353 
Q 244 794 244 1413 
Q 244 2009 563 2463 
Q 947 3009 1622 3009 
Q 2075 3009 2342 2781 
Q 2609 2553 2609 2272 
Q 2609 2094 2501 1987 
Q 2394 1881 2219 1881 
Q 2034 1881 1914 2003 
Q 1794 2125 1766 2438 
Q 1747 2634 1675 2713 
Q 1603 2791 1506 2791 
Q 1356 2791 1250 2631 
Q 1088 2391 1088 1894 
Q 1088 1481 1219 1104 
Q 1350 728 1578 544 
Q 1750 409 1984 409 
Q 2138 409 2275 481 
Q 2413 553 2600 753 
z
" transform="scale(0.015625)"/>
      <path id="TimesNewRomanPS-BoldMT-68" d="M 1409 4238 
L 1409 2547 
Q 1650 2800 1850 2904 
Q 2050 3009 2266 3009 
Q 2541 3009 2736 2853 
Q 2931 2697 2995 2486 
Q 3059 2275 3059 1775 
L 3059 634 
Q 3059 300 3121 217 
Q 3184 134 3375 113 
L 3375 0 
L 1894 0 
L 1894 113 
Q 2050 134 2128 238 
Q 2184 319 2184 634 
L 2184 1938 
Q 2184 2300 2156 2392 
Q 2128 2484 2061 2536 
Q 1994 2588 1909 2588 
Q 1784 2588 1665 2502 
Q 1547 2416 1409 2200 
L 1409 634 
Q 1409 322 1456 244 
Q 1516 138 1700 113 
L 1700 0 
L 219 0 
L 219 113 
Q 403 131 481 231 
Q 534 300 534 634 
L 534 3603 
Q 534 3934 473 4015 
Q 413 4097 219 4122 
L 219 4238 
L 1409 4238 
z
" transform="scale(0.015625)"/>
      <path id="TimesNewRomanPS-BoldMT-6f" d="M 1594 3009 
Q 1975 3009 2303 2812 
Q 2631 2616 2801 2253 
Q 2972 1891 2972 1459 
Q 2972 838 2656 419 
Q 2275 -88 1603 -88 
Q 944 -88 587 375 
Q 231 838 231 1447 
Q 231 2075 595 2542 
Q 959 3009 1594 3009 
z
M 1606 2788 
Q 1447 2788 1333 2667 
Q 1219 2547 1183 2192 
Q 1147 1838 1147 1206 
Q 1147 872 1191 581 
Q 1225 359 1337 243 
Q 1450 128 1594 128 
Q 1734 128 1828 206 
Q 1950 313 1991 503 
Q 2053 800 2053 1703 
Q 2053 2234 1993 2432 
Q 1934 2631 1819 2722 
Q 1738 2788 1606 2788 
z
" transform="scale(0.015625)"/>
      <path id="TimesNewRomanPS-BoldMT-6c" d="M 1359 4238 
L 1359 606 
Q 1359 297 1431 211 
Q 1503 125 1713 113 
L 1713 0 
L 134 0 
L 134 113 
Q 328 119 422 225 
Q 484 297 484 606 
L 484 3631 
Q 484 3938 412 4023 
Q 341 4109 134 4122 
L 134 4238 
L 1359 4238 
z
" transform="scale(0.015625)"/>
      <path id="TimesNewRomanPS-BoldMT-41" d="M 2663 1206 
L 1166 1206 
L 988 794 
Q 900 588 900 453 
Q 900 275 1044 191 
Q 1128 141 1459 116 
L 1459 0 
L 50 0 
L 50 116 
Q 278 150 425 304 
Q 572 459 788 944 
L 2303 4325 
L 2363 4325 
L 3891 850 
Q 4109 356 4250 228 
Q 4356 131 4550 116 
L 4550 0 
L 2500 0 
L 2500 116 
L 2584 116 
Q 2831 116 2931 184 
Q 3000 234 3000 328 
Q 3000 384 2981 444 
Q 2975 472 2888 678 
L 2663 1206 
z
M 2556 1438 
L 1925 2897 
L 1275 1438 
L 2556 1438 
z
" transform="scale(0.015625)"/>
      <path id="TimesNewRomanPS-BoldMT-64" d="M 3056 4238 
L 3056 875 
Q 3056 534 3075 472 
Q 3100 369 3170 319 
Q 3241 269 3416 256 
L 3416 153 
L 2181 -88 
L 2181 375 
Q 1959 106 1786 9 
Q 1613 -88 1394 -88 
Q 834 -88 509 413 
Q 247 819 247 1409 
Q 247 1881 409 2254 
Q 572 2628 855 2818 
Q 1138 3009 1463 3009 
Q 1672 3009 1834 2928 
Q 1997 2847 2181 2644 
L 2181 3525 
Q 2181 3859 2153 3928 
Q 2116 4019 2041 4062 
Q 1966 4106 1759 4106 
L 1759 4238 
L 3056 4238 
z
M 2181 2256 
Q 1950 2700 1616 2700 
Q 1500 2700 1425 2638 
Q 1309 2541 1236 2297 
Q 1163 2053 1163 1550 
Q 1163 997 1244 731 
Q 1325 466 1466 347 
Q 1538 288 1663 288 
Q 1938 288 2181 719 
L 2181 2256 
z
" transform="scale(0.015625)"/>
      <path id="TimesNewRomanPS-BoldMT-6d" d="M 1428 2922 
L 1428 2538 
Q 1669 2800 1873 2904 
Q 2078 3009 2322 3009 
Q 2603 3009 2793 2878 
Q 2984 2747 3088 2478 
Q 3338 2759 3567 2884 
Q 3797 3009 4047 3009 
Q 4350 3009 4529 2870 
Q 4709 2731 4779 2517 
Q 4850 2303 4850 1834 
L 4850 638 
Q 4850 300 4911 219 
Q 4972 138 5166 113 
L 5166 0 
L 3656 0 
L 3656 113 
Q 3834 128 3919 250 
Q 3975 334 3975 638 
L 3975 1894 
Q 3975 2284 3944 2390 
Q 3913 2497 3845 2548 
Q 3778 2600 3688 2600 
Q 3553 2600 3415 2501 
Q 3278 2403 3138 2206 
L 3138 638 
Q 3138 322 3191 241 
Q 3263 125 3466 113 
L 3466 0 
L 1953 0 
L 1953 113 
Q 2075 119 2145 173 
Q 2216 228 2239 304 
Q 2263 381 2263 638 
L 2263 1894 
Q 2263 2291 2231 2391 
Q 2200 2491 2126 2547 
Q 2053 2603 1969 2603 
Q 1844 2603 1741 2538 
Q 1594 2441 1428 2206 
L 1428 638 
Q 1428 328 1489 229 
Q 1550 131 1744 113 
L 1744 0 
L 238 0 
L 238 113 
Q 422 131 500 231 
Q 553 300 553 638 
L 553 2288 
Q 553 2619 492 2700 
Q 431 2781 238 2806 
L 238 2922 
L 1428 2922 
z
" transform="scale(0.015625)"/>
      <path id="TimesNewRomanPS-BoldMT-69" d="M 919 4338 
Q 1122 4338 1262 4195 
Q 1403 4053 1403 3853 
Q 1403 3653 1261 3512 
Q 1119 3372 919 3372 
Q 719 3372 578 3512 
Q 438 3653 438 3853 
Q 438 4053 578 4195 
Q 719 4338 919 4338 
z
M 1356 2922 
L 1356 606 
Q 1356 297 1428 211 
Q 1500 125 1709 113 
L 1709 0 
L 131 0 
L 131 113 
Q 325 119 419 225 
Q 481 297 481 606 
L 481 2313 
Q 481 2622 409 2708 
Q 338 2794 131 2806 
L 131 2922 
L 1356 2922 
z
" transform="scale(0.015625)"/>
      <path id="TimesNewRomanPS-BoldMT-73" d="M 2063 3003 
L 2109 2006 
L 2003 2006 
Q 1813 2450 1608 2612 
Q 1403 2775 1200 2775 
Q 1072 2775 981 2689 
Q 891 2603 891 2491 
Q 891 2406 953 2328 
Q 1053 2200 1512 1889 
Q 1972 1578 2117 1361 
Q 2263 1144 2263 875 
Q 2263 631 2141 397 
Q 2019 163 1797 37 
Q 1575 -88 1306 -88 
Q 1097 -88 747 44 
Q 653 78 619 78 
Q 516 78 447 -78 
L 344 -78 
L 294 972 
L 400 972 
Q 541 559 786 353 
Q 1031 147 1250 147 
Q 1400 147 1495 239 
Q 1591 331 1591 463 
Q 1591 613 1497 722 
Q 1403 831 1078 1053 
Q 600 1384 459 1559 
Q 253 1816 253 2125 
Q 253 2463 486 2736 
Q 719 3009 1159 3009 
Q 1397 3009 1619 2894 
Q 1703 2847 1756 2847 
Q 1813 2847 1847 2870 
Q 1881 2894 1956 3003 
L 2063 3003 
z
" transform="scale(0.015625)"/>
      <path id="TimesNewRomanPS-BoldMT-6e" d="M 1409 2922 
L 1409 2544 
Q 1634 2788 1840 2898 
Q 2047 3009 2284 3009 
Q 2569 3009 2756 2851 
Q 2944 2694 3006 2459 
Q 3056 2281 3056 1775 
L 3056 638 
Q 3056 300 3117 217 
Q 3178 134 3372 113 
L 3372 0 
L 1894 0 
L 1894 113 
Q 2059 134 2131 250 
Q 2181 328 2181 638 
L 2181 1938 
Q 2181 2297 2153 2390 
Q 2125 2484 2058 2536 
Q 1991 2588 1909 2588 
Q 1641 2588 1409 2203 
L 1409 638 
Q 1409 309 1470 221 
Q 1531 134 1697 113 
L 1697 0 
L 219 0 
L 219 113 
Q 403 131 481 231 
Q 534 300 534 638 
L 534 2288 
Q 534 2619 473 2700 
Q 413 2781 219 2806 
L 219 2922 
L 1409 2922 
z
" transform="scale(0.015625)"/>
      <path id="TimesNewRomanPS-BoldMT-42" d="M 2847 2247 
Q 3450 2106 3694 1906 
Q 4044 1622 4044 1169 
Q 4044 691 3659 378 
Q 3188 0 2288 0 
L 134 0 
L 134 116 
Q 428 116 533 170 
Q 638 225 680 312 
Q 722 400 722 744 
L 722 3494 
Q 722 3838 680 3927 
Q 638 4016 531 4069 
Q 425 4122 134 4122 
L 134 4238 
L 2166 4238 
Q 2894 4238 3197 4108 
Q 3500 3978 3675 3720 
Q 3850 3463 3850 3172 
Q 3850 2866 3628 2627 
Q 3406 2388 2847 2247 
z
M 1709 2331 
Q 2153 2331 2364 2431 
Q 2575 2531 2687 2712 
Q 2800 2894 2800 3175 
Q 2800 3456 2689 3636 
Q 2578 3816 2372 3909 
Q 2166 4003 1709 4000 
L 1709 2331 
z
M 1709 2088 
L 1709 728 
L 1706 572 
Q 1706 403 1792 317 
Q 1878 231 2047 231 
Q 2297 231 2508 342 
Q 2719 453 2831 664 
Q 2944 875 2944 1134 
Q 2944 1431 2806 1667 
Q 2669 1903 2428 1997 
Q 2188 2091 1709 2088 
z
" transform="scale(0.015625)"/>
      <path id="TimesNewRomanPS-BoldMT-72" d="M 1428 2922 
L 1428 2259 
Q 1719 2713 1937 2861 
Q 2156 3009 2359 3009 
Q 2534 3009 2639 2901 
Q 2744 2794 2744 2597 
Q 2744 2388 2642 2272 
Q 2541 2156 2397 2156 
Q 2231 2156 2109 2262 
Q 1988 2369 1966 2381 
Q 1934 2400 1894 2400 
Q 1803 2400 1722 2331 
Q 1594 2225 1528 2028 
Q 1428 1725 1428 1359 
L 1428 688 
L 1431 513 
Q 1431 334 1453 284 
Q 1491 200 1564 161 
Q 1638 122 1813 113 
L 1813 0 
L 234 0 
L 234 113 
Q 425 128 492 217 
Q 559 306 559 688 
L 559 2303 
Q 559 2553 534 2622 
Q 503 2709 443 2750 
Q 384 2791 234 2806 
L 234 2922 
L 1428 2922 
z
" transform="scale(0.015625)"/>
      <path id="TimesNewRomanPS-BoldMT-50" d="M 1728 1919 
L 1728 744 
Q 1728 400 1770 311 
Q 1813 222 1920 169 
Q 2028 116 2316 116 
L 2316 0 
L 163 0 
L 163 116 
Q 456 116 561 170 
Q 666 225 708 312 
Q 750 400 750 744 
L 750 3494 
Q 750 3838 708 3927 
Q 666 4016 559 4069 
Q 453 4122 163 4122 
L 163 4238 
L 2009 4238 
Q 2922 4238 3319 3913 
Q 3716 3588 3716 3100 
Q 3716 2688 3459 2394 
Q 3203 2100 2753 1994 
Q 2450 1919 1728 1919 
z
M 1728 3994 
L 1728 2163 
Q 1831 2156 1884 2156 
Q 2266 2156 2472 2382 
Q 2678 2609 2678 3084 
Q 2678 3556 2472 3775 
Q 2266 3994 1856 3994 
L 1728 3994 
z
" transform="scale(0.015625)"/>
      <path id="TimesNewRomanPS-BoldMT-67" d="M 2091 2888 
L 3075 2888 
L 3075 2544 
L 2516 2544 
Q 2669 2391 2728 2266 
Q 2803 2097 2803 1913 
Q 2803 1600 2629 1370 
Q 2456 1141 2157 1011 
Q 1859 881 1628 881 
Q 1609 881 1253 897 
Q 1113 897 1017 805 
Q 922 713 922 584 
Q 922 472 1008 400 
Q 1094 328 1288 328 
L 1828 334 
Q 2484 334 2731 191 
Q 3084 -9 3084 -425 
Q 3084 -691 2921 -908 
Q 2759 -1125 2494 -1228 
Q 2091 -1381 1566 -1381 
Q 1172 -1381 847 -1304 
Q 522 -1228 381 -1092 
Q 241 -956 241 -806 
Q 241 -663 348 -548 
Q 456 -434 750 -356 
Q 344 -156 344 200 
Q 344 416 509 619 
Q 675 822 1034 972 
Q 616 1125 428 1375 
Q 241 1625 241 1953 
Q 241 2381 591 2695 
Q 941 3009 1491 3009 
Q 1781 3009 2091 2888 
z
M 1550 2816 
Q 1369 2816 1244 2633 
Q 1119 2450 1119 1875 
Q 1119 1409 1242 1236 
Q 1366 1063 1534 1063 
Q 1722 1063 1847 1234 
Q 1972 1406 1972 1903 
Q 1972 2463 1831 2666 
Q 1731 2816 1550 2816 
z
M 1366 -431 
Q 1047 -431 944 -484 
Q 766 -581 766 -747 
Q 766 -906 950 -1036 
Q 1134 -1166 1644 -1166 
Q 2078 -1166 2326 -1050 
Q 2575 -934 2575 -725 
Q 2575 -647 2528 -594 
Q 2444 -500 2273 -465 
Q 2103 -431 1366 -431 
z
" transform="scale(0.015625)"/>
      <path id="TimesNewRomanPS-BoldMT-65" d="M 2691 1566 
L 1088 1566 
Q 1116 984 1397 647 
Q 1613 388 1916 388 
Q 2103 388 2256 492 
Q 2409 597 2584 869 
L 2691 800 
Q 2453 316 2165 114 
Q 1878 -88 1500 -88 
Q 850 -88 516 413 
Q 247 816 247 1413 
Q 247 2144 642 2576 
Q 1038 3009 1569 3009 
Q 2013 3009 2339 2645 
Q 2666 2281 2691 1566 
z
M 1922 1775 
Q 1922 2278 1867 2465 
Q 1813 2653 1697 2750 
Q 1631 2806 1522 2806 
Q 1359 2806 1256 2647 
Q 1072 2369 1072 1884 
L 1072 1775 
L 1922 1775 
z
" transform="scale(0.015625)"/>
      <path id="TimesNewRomanPS-BoldMT-2d" d="M 1978 1147 
L 156 1147 
L 156 1794 
L 1978 1794 
L 1978 1147 
z
" transform="scale(0.015625)"/>
      <path id="TimesNewRomanPS-BoldMT-44" d="M 84 0 
L 84 116 
L 225 116 
Q 409 116 507 173 
Q 606 231 653 331 
Q 681 397 681 725 
L 681 3513 
Q 681 3838 647 3919 
Q 613 4000 508 4061 
Q 403 4122 225 4122 
L 84 4122 
L 84 4238 
L 1981 4238 
Q 2741 4238 3203 4031 
Q 3769 3778 4061 3265 
Q 4353 2753 4353 2106 
Q 4353 1659 4209 1282 
Q 4066 906 3837 661 
Q 3609 416 3311 267 
Q 3013 119 2581 38 
Q 2391 0 1981 0 
L 84 0 
z
M 1700 3997 
L 1700 691 
Q 1700 428 1725 368 
Q 1750 309 1809 278 
Q 1894 231 2053 231 
Q 2575 231 2850 588 
Q 3225 1069 3225 2081 
Q 3225 2897 2969 3384 
Q 2766 3766 2447 3903 
Q 2222 4000 1700 3997 
z
" transform="scale(0.015625)"/>
      <path id="TimesNewRomanPS-BoldMT-54" d="M 4038 4238 
L 4038 3091 
L 3925 3091 
Q 3825 3488 3703 3661 
Q 3581 3834 3369 3938 
Q 3250 3994 2953 3994 
L 2638 3994 
L 2638 725 
Q 2638 400 2673 319 
Q 2709 238 2814 177 
Q 2919 116 3100 116 
L 3241 116 
L 3241 0 
L 1022 0 
L 1022 116 
L 1163 116 
Q 1347 116 1459 181 
Q 1541 225 1588 331 
Q 1622 406 1622 725 
L 1622 3994 
L 1316 3994 
Q 888 3994 694 3813 
Q 422 3559 350 3091 
L 231 3091 
L 231 4238 
L 4038 4238 
z
" transform="scale(0.015625)"/>
     </defs>
     <use xlink:href="#TimesNewRomanPS-BoldMT-4c"/>
     <use xlink:href="#TimesNewRomanPS-BoldMT-61" x="66.699219"/>
     <use xlink:href="#TimesNewRomanPS-BoldMT-77" x="116.699219"/>
     <use xlink:href="#TimesNewRomanPS-BoldMT-20" x="188.916016"/>
     <use xlink:href="#TimesNewRomanPS-BoldMT-53" x="213.916016"/>
     <use xlink:href="#TimesNewRomanPS-BoldMT-63" x="269.53125"/>
     <use xlink:href="#TimesNewRomanPS-BoldMT-68" x="313.916016"/>
     <use xlink:href="#TimesNewRomanPS-BoldMT-6f" x="369.53125"/>
     <use xlink:href="#TimesNewRomanPS-BoldMT-6f" x="419.53125"/>
     <use xlink:href="#TimesNewRomanPS-BoldMT-6c" x="469.53125"/>
     <use xlink:href="#TimesNewRomanPS-BoldMT-20" x="497.314453"/>
     <use xlink:href="#TimesNewRomanPS-BoldMT-41" x="516.814453"/>
     <use xlink:href="#TimesNewRomanPS-BoldMT-64" x="589.03125"/>
     <use xlink:href="#TimesNewRomanPS-BoldMT-6d" x="644.646484"/>
     <use xlink:href="#TimesNewRomanPS-BoldMT-69" x="727.947266"/>
     <use xlink:href="#TimesNewRomanPS-BoldMT-73" x="755.730469"/>
     <use xlink:href="#TimesNewRomanPS-BoldMT-73" x="794.646484"/>
     <use xlink:href="#TimesNewRomanPS-BoldMT-69" x="833.5625"/>
     <use xlink:href="#TimesNewRomanPS-BoldMT-6f" x="861.345703"/>
     <use xlink:href="#TimesNewRomanPS-BoldMT-6e" x="911.345703"/>
     <use xlink:href="#TimesNewRomanPS-BoldMT-20" x="966.960938"/>
     <use xlink:href="#TimesNewRomanPS-BoldMT-42" x="991.960938"/>
     <use xlink:href="#TimesNewRomanPS-BoldMT-61" x="1058.660156"/>
     <use xlink:href="#TimesNewRomanPS-BoldMT-72" x="1108.660156"/>
     <use xlink:href="#TimesNewRomanPS-BoldMT-20" x="1151.294922"/>
     <use xlink:href="#TimesNewRomanPS-BoldMT-50" x="1176.294922"/>
     <use xlink:href="#TimesNewRomanPS-BoldMT-61" x="1237.378906"/>
     <use xlink:href="#TimesNewRomanPS-BoldMT-73" x="1287.378906"/>
     <use xlink:href="#TimesNewRomanPS-BoldMT-73" x="1326.294922"/>
     <use xlink:href="#TimesNewRomanPS-BoldMT-61" x="1365.210938"/>
     <use xlink:href="#TimesNewRomanPS-BoldMT-67" x="1415.210938"/>
     <use xlink:href="#TimesNewRomanPS-BoldMT-65" x="1465.210938"/>
     <use xlink:href="#TimesNewRomanPS-BoldMT-20" x="1509.595703"/>
     <use xlink:href="#TimesNewRomanPS-BoldMT-2d" x="1534.595703"/>
     <use xlink:href="#TimesNewRomanPS-BoldMT-20" x="1567.896484"/>
     <use xlink:href="#TimesNewRomanPS-BoldMT-44" x="1592.896484"/>
     <use xlink:href="#TimesNewRomanPS-BoldMT-65" x="1665.113281"/>
     <use xlink:href="#TimesNewRomanPS-BoldMT-63" x="1709.498047"/>
     <use xlink:href="#TimesNewRomanPS-BoldMT-69" x="1753.882812"/>
     <use xlink:href="#TimesNewRomanPS-BoldMT-73" x="1781.666016"/>
     <use xlink:href="#TimesNewRomanPS-BoldMT-69" x="1820.582031"/>
     <use xlink:href="#TimesNewRomanPS-BoldMT-6f" x="1848.365234"/>
     <use xlink:href="#TimesNewRomanPS-BoldMT-6e" x="1898.365234"/>
     <use xlink:href="#TimesNewRomanPS-BoldMT-20" x="1953.980469"/>
     <use xlink:href="#TimesNewRomanPS-BoldMT-54" x="1977.230469"/>
     <use xlink:href="#TimesNewRomanPS-BoldMT-72" x="2036.554688"/>
     <use xlink:href="#TimesNewRomanPS-BoldMT-65" x="2079.189453"/>
     <use xlink:href="#TimesNewRomanPS-BoldMT-65" x="2123.574219"/>
    </g>
   </g>
   <g id="legend_1">
    <g id="patch_5">
     <path d="M 635.701875 192.14875 
L 720.234688 192.14875 
Q 722.234688 192.14875 722.234688 190.14875 
L 722.234688 29.689375 
Q 722.234688 27.689375 720.234688 27.689375 
L 635.701875 27.689375 
Q 633.701875 27.689375 633.701875 29.689375 
L 633.701875 190.14875 
Q 633.701875 192.14875 635.701875 192.14875 
z
" style="fill: #ffffff; opacity: 0.8; stroke: #cccccc; stroke-linejoin: miter"/>
    </g>
    <g id="text_19">
     <!-- Metric -->
     <g transform="translate(645.701875 39.287812) scale(0.1 -0.1)">
      <defs>
       <path id="DejaVuSans-4d" d="M 628 4666 
L 1569 4666 
L 2759 1491 
L 3956 4666 
L 4897 4666 
L 4897 0 
L 4281 0 
L 4281 4097 
L 3078 897 
L 2444 897 
L 1241 4097 
L 1241 0 
L 628 0 
L 628 4666 
z
" transform="scale(0.015625)"/>
       <path id="DejaVuSans-65" d="M 3597 1894 
L 3597 1613 
L 953 1613 
Q 991 1019 1311 708 
Q 1631 397 2203 397 
Q 2534 397 2845 478 
Q 3156 559 3463 722 
L 3463 178 
Q 3153 47 2828 -22 
Q 2503 -91 2169 -91 
Q 1331 -91 842 396 
Q 353 884 353 1716 
Q 353 2575 817 3079 
Q 1281 3584 2069 3584 
Q 2775 3584 3186 3129 
Q 3597 2675 3597 1894 
z
M 3022 2063 
Q 3016 2534 2758 2815 
Q 2500 3097 2075 3097 
Q 1594 3097 1305 2825 
Q 1016 2553 972 2059 
L 3022 2063 
z
" transform="scale(0.015625)"/>
       <path id="DejaVuSans-74" d="M 1172 4494 
L 1172 3500 
L 2356 3500 
L 2356 3053 
L 1172 3053 
L 1172 1153 
Q 1172 725 1289 603 
Q 1406 481 1766 481 
L 2356 481 
L 2356 0 
L 1766 0 
Q 1100 0 847 248 
Q 594 497 594 1153 
L 594 3053 
L 172 3053 
L 172 3500 
L 594 3500 
L 594 4494 
L 1172 4494 
z
" transform="scale(0.015625)"/>
       <path id="DejaVuSans-72" d="M 2631 2963 
Q 2534 3019 2420 3045 
Q 2306 3072 2169 3072 
Q 1681 3072 1420 2755 
Q 1159 2438 1159 1844 
L 1159 0 
L 581 0 
L 581 3500 
L 1159 3500 
L 1159 2956 
Q 1341 3275 1631 3429 
Q 1922 3584 2338 3584 
Q 2397 3584 2469 3576 
Q 2541 3569 2628 3553 
L 2631 2963 
z
" transform="scale(0.015625)"/>
       <path id="DejaVuSans-69" d="M 603 3500 
L 1178 3500 
L 1178 0 
L 603 0 
L 603 3500 
z
M 603 4863 
L 1178 4863 
L 1178 4134 
L 603 4134 
L 603 4863 
z
" transform="scale(0.015625)"/>
       <path id="DejaVuSans-63" d="M 3122 3366 
L 3122 2828 
Q 2878 2963 2633 3030 
Q 2388 3097 2138 3097 
Q 1578 3097 1268 2742 
Q 959 2388 959 1747 
Q 959 1106 1268 751 
Q 1578 397 2138 397 
Q 2388 397 2633 464 
Q 2878 531 3122 666 
L 3122 134 
Q 2881 22 2623 -34 
Q 2366 -91 2075 -91 
Q 1284 -91 818 406 
Q 353 903 353 1747 
Q 353 2603 823 3093 
Q 1294 3584 2113 3584 
Q 2378 3584 2631 3529 
Q 2884 3475 3122 3366 
z
" transform="scale(0.015625)"/>
      </defs>
      <use xlink:href="#DejaVuSans-4d"/>
      <use xlink:href="#DejaVuSans-65" x="86.279297"/>
      <use xlink:href="#DejaVuSans-74" x="147.802734"/>
      <use xlink:href="#DejaVuSans-72" x="187.011719"/>
      <use xlink:href="#DejaVuSans-69" x="228.125"/>
      <use xlink:href="#DejaVuSans-63" x="255.908203"/>
     </g>
    </g>
    <g id="line2d_54">
     <path d="M 637.701875 50.465937 
L 647.701875 50.465937 
L 657.701875 50.465937 
" style="fill: none; stroke: #a1c9f4; stroke-width: 1.5; stroke-linecap: square"/>
    </g>
    <g id="text_20">
     <!-- DI -->
     <g transform="translate(665.701875 53.965937) scale(0.1 -0.1)">
      <defs>
       <path id="DejaVuSans-44" d="M 1259 4147 
L 1259 519 
L 2022 519 
Q 2988 519 3436 956 
Q 3884 1394 3884 2338 
Q 3884 3275 3436 3711 
Q 2988 4147 2022 4147 
L 1259 4147 
z
M 628 4666 
L 1925 4666 
Q 3281 4666 3915 4102 
Q 4550 3538 4550 2338 
Q 4550 1131 3912 565 
Q 3275 0 1925 0 
L 628 0 
L 628 4666 
z
" transform="scale(0.015625)"/>
       <path id="DejaVuSans-49" d="M 628 4666 
L 1259 4666 
L 1259 0 
L 628 0 
L 628 4666 
z
" transform="scale(0.015625)"/>
      </defs>
      <use xlink:href="#DejaVuSans-44"/>
      <use xlink:href="#DejaVuSans-49" x="77.001953"/>
     </g>
    </g>
    <g id="line2d_55">
     <path d="M 637.701875 65.144062 
L 647.701875 65.144062 
L 657.701875 65.144062 
" style="fill: none; stroke: #ffb482; stroke-width: 1.5; stroke-linecap: square"/>
    </g>
    <g id="text_21">
     <!-- DS -->
     <g transform="translate(665.701875 68.644062) scale(0.1 -0.1)">
      <defs>
       <path id="DejaVuSans-53" d="M 3425 4513 
L 3425 3897 
Q 3066 4069 2747 4153 
Q 2428 4238 2131 4238 
Q 1616 4238 1336 4038 
Q 1056 3838 1056 3469 
Q 1056 3159 1242 3001 
Q 1428 2844 1947 2747 
L 2328 2669 
Q 3034 2534 3370 2195 
Q 3706 1856 3706 1288 
Q 3706 609 3251 259 
Q 2797 -91 1919 -91 
Q 1588 -91 1214 -16 
Q 841 59 441 206 
L 441 856 
Q 825 641 1194 531 
Q 1563 422 1919 422 
Q 2459 422 2753 634 
Q 3047 847 3047 1241 
Q 3047 1584 2836 1778 
Q 2625 1972 2144 2069 
L 1759 2144 
Q 1053 2284 737 2584 
Q 422 2884 422 3419 
Q 422 4038 858 4394 
Q 1294 4750 2059 4750 
Q 2388 4750 2728 4690 
Q 3069 4631 3425 4513 
z
" transform="scale(0.015625)"/>
      </defs>
      <use xlink:href="#DejaVuSans-44"/>
      <use xlink:href="#DejaVuSans-53" x="77.001953"/>
     </g>
    </g>
    <g id="line2d_56">
     <path d="M 637.701875 79.822187 
L 647.701875 79.822187 
L 657.701875 79.822187 
" style="fill: none; stroke: #8de5a1; stroke-width: 1.5; stroke-linecap: square"/>
    </g>
    <g id="text_22">
     <!-- TPD -->
     <g transform="translate(665.701875 83.322187) scale(0.1 -0.1)">
      <defs>
       <path id="DejaVuSans-54" d="M -19 4666 
L 3928 4666 
L 3928 4134 
L 2272 4134 
L 2272 0 
L 1638 0 
L 1638 4134 
L -19 4134 
L -19 4666 
z
" transform="scale(0.015625)"/>
       <path id="DejaVuSans-50" d="M 1259 4147 
L 1259 2394 
L 2053 2394 
Q 2494 2394 2734 2622 
Q 2975 2850 2975 3272 
Q 2975 3691 2734 3919 
Q 2494 4147 2053 4147 
L 1259 4147 
z
M 628 4666 
L 2053 4666 
Q 2838 4666 3239 4311 
Q 3641 3956 3641 3272 
Q 3641 2581 3239 2228 
Q 2838 1875 2053 1875 
L 1259 1875 
L 1259 0 
L 628 0 
L 628 4666 
z
" transform="scale(0.015625)"/>
      </defs>
      <use xlink:href="#DejaVuSans-54"/>
      <use xlink:href="#DejaVuSans-50" x="61.083984"/>
      <use xlink:href="#DejaVuSans-44" x="121.386719"/>
     </g>
    </g>
    <g id="line2d_57">
     <path d="M 637.701875 94.500312 
L 647.701875 94.500312 
L 657.701875 94.500312 
" style="fill: none; stroke: #ff9f9b; stroke-width: 1.5; stroke-linecap: square"/>
    </g>
    <g id="text_23">
     <!-- FPD -->
     <g transform="translate(665.701875 98.000312) scale(0.1 -0.1)">
      <defs>
       <path id="DejaVuSans-46" d="M 628 4666 
L 3309 4666 
L 3309 4134 
L 1259 4134 
L 1259 2759 
L 3109 2759 
L 3109 2228 
L 1259 2228 
L 1259 0 
L 628 0 
L 628 4666 
z
" transform="scale(0.015625)"/>
      </defs>
      <use xlink:href="#DejaVuSans-46"/>
      <use xlink:href="#DejaVuSans-50" x="57.519531"/>
      <use xlink:href="#DejaVuSans-44" x="117.822266"/>
     </g>
    </g>
    <g id="line2d_58">
     <path d="M 637.701875 109.178437 
L 647.701875 109.178437 
L 657.701875 109.178437 
" style="fill: none; stroke: #d0bbff; stroke-width: 1.5; stroke-linecap: square"/>
    </g>
    <g id="text_24">
     <!-- FPE -->
     <g transform="translate(665.701875 112.678437) scale(0.1 -0.1)">
      <defs>
       <path id="DejaVuSans-45" d="M 628 4666 
L 3578 4666 
L 3578 4134 
L 1259 4134 
L 1259 2753 
L 3481 2753 
L 3481 2222 
L 1259 2222 
L 1259 531 
L 3634 531 
L 3634 0 
L 628 0 
L 628 4666 
z
" transform="scale(0.015625)"/>
      </defs>
      <use xlink:href="#DejaVuSans-46"/>
      <use xlink:href="#DejaVuSans-50" x="57.519531"/>
      <use xlink:href="#DejaVuSans-45" x="117.822266"/>
     </g>
    </g>
    <g id="line2d_59">
     <path d="M 637.701875 123.856562 
L 647.701875 123.856562 
L 657.701875 123.856562 
" style="fill: none; stroke: #debb9b; stroke-width: 1.5; stroke-linecap: square"/>
    </g>
    <g id="text_25">
     <!-- FNE -->
     <g transform="translate(665.701875 127.356562) scale(0.1 -0.1)">
      <defs>
       <path id="DejaVuSans-4e" d="M 628 4666 
L 1478 4666 
L 3547 763 
L 3547 4666 
L 4159 4666 
L 4159 0 
L 3309 0 
L 1241 3903 
L 1241 0 
L 628 0 
L 628 4666 
z
" transform="scale(0.015625)"/>
      </defs>
      <use xlink:href="#DejaVuSans-46"/>
      <use xlink:href="#DejaVuSans-4e" x="57.519531"/>
      <use xlink:href="#DejaVuSans-45" x="132.324219"/>
     </g>
    </g>
    <g id="line2d_60">
     <path d="M 637.701875 138.534687 
L 647.701875 138.534687 
L 657.701875 138.534687 
" style="fill: none; stroke: #fab0e4; stroke-width: 1.5; stroke-linecap: square"/>
    </g>
    <g id="text_26">
     <!-- CON -->
     <g transform="translate(665.701875 142.034687) scale(0.1 -0.1)">
      <defs>
       <path id="DejaVuSans-43" d="M 4122 4306 
L 4122 3641 
Q 3803 3938 3442 4084 
Q 3081 4231 2675 4231 
Q 1875 4231 1450 3742 
Q 1025 3253 1025 2328 
Q 1025 1406 1450 917 
Q 1875 428 2675 428 
Q 3081 428 3442 575 
Q 3803 722 4122 1019 
L 4122 359 
Q 3791 134 3420 21 
Q 3050 -91 2638 -91 
Q 1578 -91 968 557 
Q 359 1206 359 2328 
Q 359 3453 968 4101 
Q 1578 4750 2638 4750 
Q 3056 4750 3426 4639 
Q 3797 4528 4122 4306 
z
" transform="scale(0.015625)"/>
       <path id="DejaVuSans-4f" d="M 2522 4238 
Q 1834 4238 1429 3725 
Q 1025 3213 1025 2328 
Q 1025 1447 1429 934 
Q 1834 422 2522 422 
Q 3209 422 3611 934 
Q 4013 1447 4013 2328 
Q 4013 3213 3611 3725 
Q 3209 4238 2522 4238 
z
M 2522 4750 
Q 3503 4750 4090 4092 
Q 4678 3434 4678 2328 
Q 4678 1225 4090 567 
Q 3503 -91 2522 -91 
Q 1538 -91 948 565 
Q 359 1222 359 2328 
Q 359 3434 948 4092 
Q 1538 4750 2522 4750 
z
" transform="scale(0.015625)"/>
      </defs>
      <use xlink:href="#DejaVuSans-43"/>
      <use xlink:href="#DejaVuSans-4f" x="69.824219"/>
      <use xlink:href="#DejaVuSans-4e" x="148.535156"/>
     </g>
    </g>
    <g id="text_27">
     <!-- Legend -->
     <g transform="translate(645.701875 156.712812) scale(0.1 -0.1)">
      <defs>
       <path id="DejaVuSans-4c" d="M 628 4666 
L 1259 4666 
L 1259 531 
L 3531 531 
L 3531 0 
L 628 0 
L 628 4666 
z
" transform="scale(0.015625)"/>
       <path id="DejaVuSans-67" d="M 2906 1791 
Q 2906 2416 2648 2759 
Q 2391 3103 1925 3103 
Q 1463 3103 1205 2759 
Q 947 2416 947 1791 
Q 947 1169 1205 825 
Q 1463 481 1925 481 
Q 2391 481 2648 825 
Q 2906 1169 2906 1791 
z
M 3481 434 
Q 3481 -459 3084 -895 
Q 2688 -1331 1869 -1331 
Q 1566 -1331 1297 -1286 
Q 1028 -1241 775 -1147 
L 775 -588 
Q 1028 -725 1275 -790 
Q 1522 -856 1778 -856 
Q 2344 -856 2625 -561 
Q 2906 -266 2906 331 
L 2906 616 
Q 2728 306 2450 153 
Q 2172 0 1784 0 
Q 1141 0 747 490 
Q 353 981 353 1791 
Q 353 2603 747 3093 
Q 1141 3584 1784 3584 
Q 2172 3584 2450 3431 
Q 2728 3278 2906 2969 
L 2906 3500 
L 3481 3500 
L 3481 434 
z
" transform="scale(0.015625)"/>
       <path id="DejaVuSans-6e" d="M 3513 2113 
L 3513 0 
L 2938 0 
L 2938 2094 
Q 2938 2591 2744 2837 
Q 2550 3084 2163 3084 
Q 1697 3084 1428 2787 
Q 1159 2491 1159 1978 
L 1159 0 
L 581 0 
L 581 3500 
L 1159 3500 
L 1159 2956 
Q 1366 3272 1645 3428 
Q 1925 3584 2291 3584 
Q 2894 3584 3203 3211 
Q 3513 2838 3513 2113 
z
" transform="scale(0.015625)"/>
       <path id="DejaVuSans-64" d="M 2906 2969 
L 2906 4863 
L 3481 4863 
L 3481 0 
L 2906 0 
L 2906 525 
Q 2725 213 2448 61 
Q 2172 -91 1784 -91 
Q 1150 -91 751 415 
Q 353 922 353 1747 
Q 353 2572 751 3078 
Q 1150 3584 1784 3584 
Q 2172 3584 2448 3432 
Q 2725 3281 2906 2969 
z
M 947 1747 
Q 947 1113 1208 752 
Q 1469 391 1925 391 
Q 2381 391 2643 752 
Q 2906 1113 2906 1747 
Q 2906 2381 2643 2742 
Q 2381 3103 1925 3103 
Q 1469 3103 1208 2742 
Q 947 2381 947 1747 
z
" transform="scale(0.015625)"/>
      </defs>
      <use xlink:href="#DejaVuSans-4c"/>
      <use xlink:href="#DejaVuSans-65" x="53.962891"/>
      <use xlink:href="#DejaVuSans-67" x="115.486328"/>
      <use xlink:href="#DejaVuSans-65" x="178.962891"/>
      <use xlink:href="#DejaVuSans-6e" x="240.486328"/>
      <use xlink:href="#DejaVuSans-64" x="303.865234"/>
     </g>
    </g>
    <g id="line2d_61">
     <path d="M 637.701875 167.890937 
L 647.701875 167.890937 
L 657.701875 167.890937 
" style="fill: none; stroke: #333333; stroke-width: 1.5; stroke-linecap: square"/>
    </g>
    <g id="text_28">
     <!-- Best -->
     <g transform="translate(665.701875 171.390937) scale(0.1 -0.1)">
      <defs>
       <path id="DejaVuSans-42" d="M 1259 2228 
L 1259 519 
L 2272 519 
Q 2781 519 3026 730 
Q 3272 941 3272 1375 
Q 3272 1813 3026 2020 
Q 2781 2228 2272 2228 
L 1259 2228 
z
M 1259 4147 
L 1259 2741 
L 2194 2741 
Q 2656 2741 2882 2914 
Q 3109 3088 3109 3444 
Q 3109 3797 2882 3972 
Q 2656 4147 2194 4147 
L 1259 4147 
z
M 628 4666 
L 2241 4666 
Q 2963 4666 3353 4366 
Q 3744 4066 3744 3513 
Q 3744 3084 3544 2831 
Q 3344 2578 2956 2516 
Q 3422 2416 3680 2098 
Q 3938 1781 3938 1306 
Q 3938 681 3513 340 
Q 3088 0 2303 0 
L 628 0 
L 628 4666 
z
" transform="scale(0.015625)"/>
       <path id="DejaVuSans-73" d="M 2834 3397 
L 2834 2853 
Q 2591 2978 2328 3040 
Q 2066 3103 1784 3103 
Q 1356 3103 1142 2972 
Q 928 2841 928 2578 
Q 928 2378 1081 2264 
Q 1234 2150 1697 2047 
L 1894 2003 
Q 2506 1872 2764 1633 
Q 3022 1394 3022 966 
Q 3022 478 2636 193 
Q 2250 -91 1575 -91 
Q 1294 -91 989 -36 
Q 684 19 347 128 
L 347 722 
Q 666 556 975 473 
Q 1284 391 1588 391 
Q 1994 391 2212 530 
Q 2431 669 2431 922 
Q 2431 1156 2273 1281 
Q 2116 1406 1581 1522 
L 1381 1569 
Q 847 1681 609 1914 
Q 372 2147 372 2553 
Q 372 3047 722 3315 
Q 1072 3584 1716 3584 
Q 2034 3584 2315 3537 
Q 2597 3491 2834 3397 
z
" transform="scale(0.015625)"/>
      </defs>
      <use xlink:href="#DejaVuSans-42"/>
      <use xlink:href="#DejaVuSans-65" x="68.603516"/>
      <use xlink:href="#DejaVuSans-73" x="130.126953"/>
      <use xlink:href="#DejaVuSans-74" x="182.226562"/>
     </g>
    </g>
    <g id="line2d_62">
     <path d="M 637.701875 182.569062 
L 647.701875 182.569062 
L 657.701875 182.569062 
" style="fill: none; stroke-dasharray: 6,2.25; stroke-dashoffset: 0; stroke: #333333; stroke-width: 1.5"/>
    </g>
    <g id="text_29">
     <!-- Population -->
     <g transform="translate(665.701875 186.069062) scale(0.1 -0.1)">
      <defs>
       <path id="DejaVuSans-6f" d="M 1959 3097 
Q 1497 3097 1228 2736 
Q 959 2375 959 1747 
Q 959 1119 1226 758 
Q 1494 397 1959 397 
Q 2419 397 2687 759 
Q 2956 1122 2956 1747 
Q 2956 2369 2687 2733 
Q 2419 3097 1959 3097 
z
M 1959 3584 
Q 2709 3584 3137 3096 
Q 3566 2609 3566 1747 
Q 3566 888 3137 398 
Q 2709 -91 1959 -91 
Q 1206 -91 779 398 
Q 353 888 353 1747 
Q 353 2609 779 3096 
Q 1206 3584 1959 3584 
z
" transform="scale(0.015625)"/>
       <path id="DejaVuSans-70" d="M 1159 525 
L 1159 -1331 
L 581 -1331 
L 581 3500 
L 1159 3500 
L 1159 2969 
Q 1341 3281 1617 3432 
Q 1894 3584 2278 3584 
Q 2916 3584 3314 3078 
Q 3713 2572 3713 1747 
Q 3713 922 3314 415 
Q 2916 -91 2278 -91 
Q 1894 -91 1617 61 
Q 1341 213 1159 525 
z
M 3116 1747 
Q 3116 2381 2855 2742 
Q 2594 3103 2138 3103 
Q 1681 3103 1420 2742 
Q 1159 2381 1159 1747 
Q 1159 1113 1420 752 
Q 1681 391 2138 391 
Q 2594 391 2855 752 
Q 3116 1113 3116 1747 
z
" transform="scale(0.015625)"/>
       <path id="DejaVuSans-75" d="M 544 1381 
L 544 3500 
L 1119 3500 
L 1119 1403 
Q 1119 906 1312 657 
Q 1506 409 1894 409 
Q 2359 409 2629 706 
Q 2900 1003 2900 1516 
L 2900 3500 
L 3475 3500 
L 3475 0 
L 2900 0 
L 2900 538 
Q 2691 219 2414 64 
Q 2138 -91 1772 -91 
Q 1169 -91 856 284 
Q 544 659 544 1381 
z
M 1991 3584 
L 1991 3584 
z
" transform="scale(0.015625)"/>
       <path id="DejaVuSans-6c" d="M 603 4863 
L 1178 4863 
L 1178 0 
L 603 0 
L 603 4863 
z
" transform="scale(0.015625)"/>
       <path id="DejaVuSans-61" d="M 2194 1759 
Q 1497 1759 1228 1600 
Q 959 1441 959 1056 
Q 959 750 1161 570 
Q 1363 391 1709 391 
Q 2188 391 2477 730 
Q 2766 1069 2766 1631 
L 2766 1759 
L 2194 1759 
z
M 3341 1997 
L 3341 0 
L 2766 0 
L 2766 531 
Q 2569 213 2275 61 
Q 1981 -91 1556 -91 
Q 1019 -91 701 211 
Q 384 513 384 1019 
Q 384 1609 779 1909 
Q 1175 2209 1959 2209 
L 2766 2209 
L 2766 2266 
Q 2766 2663 2505 2880 
Q 2244 3097 1772 3097 
Q 1472 3097 1187 3025 
Q 903 2953 641 2809 
L 641 3341 
Q 956 3463 1253 3523 
Q 1550 3584 1831 3584 
Q 2591 3584 2966 3190 
Q 3341 2797 3341 1997 
z
" transform="scale(0.015625)"/>
      </defs>
      <use xlink:href="#DejaVuSans-50"/>
      <use xlink:href="#DejaVuSans-6f" x="56.677734"/>
      <use xlink:href="#DejaVuSans-70" x="117.859375"/>
      <use xlink:href="#DejaVuSans-75" x="181.335938"/>
      <use xlink:href="#DejaVuSans-6c" x="244.714844"/>
      <use xlink:href="#DejaVuSans-61" x="272.498047"/>
      <use xlink:href="#DejaVuSans-74" x="333.777344"/>
      <use xlink:href="#DejaVuSans-69" x="372.986328"/>
      <use xlink:href="#DejaVuSans-6f" x="400.769531"/>
      <use xlink:href="#DejaVuSans-6e" x="461.951172"/>
     </g>
    </g>
   </g>
  </g>
 </g>
 <defs>
  <clipPath id="pd0ce633ada">
   <rect x="57.634688" y="22.689375" width="669.6" height="443.52"/>
  </clipPath>
 </defs>
</svg>
